<svg width="120" height="240" viewBox="0 0 120 240" fill="none" xmlns="http://www.w3.org/2000/svg">
<path d="M 60.0 222.4 Q 53.2 221.0 42.5 221.5" stroke="#b78458" stroke-width="0.55" stroke-linecap="round" opacity="0.34"/>
<path d="M 60.1 220.6 Q 52.8 218.9 41.4 225.2" stroke="#b47c51" stroke-width="0.55" stroke-linecap="round" opacity="0.34"/>
<path d="M 60.1 218.9 Q 52.0 216.0 40.6 218.5" stroke="#b2774d" stroke-width="0.55" stroke-linecap="round" opacity="0.34"/>
<path d="M 60.1 217.2 Q 52.5 214.6 41.9 218.1" stroke="#b07147" stroke-width="0.55" stroke-linecap="round" opacity="0.34"/>
<path d="M 60.1 215.5 Q 51.8 211.8 41.3 216.1" stroke="#b1744a" stroke-width="0.55" stroke-linecap="round" opacity="0.34"/>
<path d="M 60.1 213.7 Q 50.5 210.0 40.3 209.5" stroke="#b37a4f" stroke-width="0.55" stroke-linecap="round" opacity="0.34"/>
<path d="M 60.2 212.0 Q 50.7 208.5 37.3 209.5" stroke="#b78357" stroke-width="0.55" stroke-linecap="round" opacity="0.34"/>
<path d="M 60.2 210.3 Q 50.4 206.7 32.2 204.9" stroke="#b68156" stroke-width="0.55" stroke-linecap="round" opacity="0.34"/>
<path d="M 60.2 208.5 Q 51.2 204.8 38.2 205.7" stroke="#b57d52" stroke-width="0.55" stroke-linecap="round" opacity="0.34"/>
<path d="M 60.3 206.8 Q 49.7 201.6 36.0 205.1" stroke="#b47b50" stroke-width="0.55" stroke-linecap="round" opacity="0.34"/>
<path d="M 60.3 205.1 Q 50.3 200.4 41.1 199.2" stroke="#b37a4f" stroke-width="0.55" stroke-linecap="round" opacity="0.34"/>
<path d="M 60.4 203.4 Q 50.4 195.6 36.6 191.0" stroke="#5d6f7b" stroke-width="0.82" stroke-linecap="round" opacity="0.544"/>
<path d="M 60.4 201.6 Q 49.5 192.1 34.4 186.1" stroke="#475965" stroke-width="0.84" stroke-linecap="round" opacity="0.555"/>
<path d="M 60.4 199.9 Q 49.1 191.3 33.3 186.3" stroke="#344551" stroke-width="0.85" stroke-linecap="round" opacity="0.566"/>
<path d="M 60.5 198.2 Q 49.5 189.8 34.4 185.1" stroke="#354652" stroke-width="0.86" stroke-linecap="round" opacity="0.576"/>
<path d="M 60.5 196.4 Q 48.0 186.0 30.7 179.6" stroke="#52636f" stroke-width="0.87" stroke-linecap="round" opacity="0.587"/>
<path d="M 60.6 194.7 Q 51.6 186.8 39.2 181.7" stroke="#4d5e6a" stroke-width="0.88" stroke-linecap="round" opacity="0.209"/>
<path d="M 60.7 193.0 Q 50.7 184.7 37.0 179.5" stroke="#576975" stroke-width="0.89" stroke-linecap="round" opacity="0.212"/>
<path d="M 60.7 191.3 Q 50.6 183.5 36.7 178.9" stroke="#3b4c58" stroke-width="0.90" stroke-linecap="round" opacity="0.216"/>
<path d="M 60.8 189.5 Q 48.8 178.4 32.3 170.9" stroke="#485a66" stroke-width="0.91" stroke-linecap="round" opacity="0.625"/>
<path d="M 60.8 187.8 Q 46.8 176.8 27.3 170.4" stroke="#566773" stroke-width="0.92" stroke-linecap="round" opacity="0.634"/>
<path d="M 60.9 186.1 Q 48.8 175.1 32.2 167.9" stroke="#5c6e7a" stroke-width="0.93" stroke-linecap="round" opacity="0.643"/>
<path d="M 60.9 186.1 Q 47.8 176.3 30.7 169.7" stroke="#929da3" stroke-width="0.56" stroke-linecap="round" opacity="0.321"/>
<path d="M 61.0 184.3 Q 46.4 172.9 26.2 166.1" stroke="#3e4f5b" stroke-width="0.94" stroke-linecap="round" opacity="0.652"/>
<path d="M 61.0 182.6 Q 47.9 171.3 29.7 164.1" stroke="#364753" stroke-width="0.95" stroke-linecap="round" opacity="0.66"/>
<path d="M 61.1 180.9 Q 48.3 170.2 30.6 163.6" stroke="#485a66" stroke-width="0.96" stroke-linecap="round" opacity="0.668"/>
<path d="M 61.1 180.9 Q 47.3 171.4 29.1 165.4" stroke="#859096" stroke-width="0.58" stroke-linecap="round" opacity="0.334"/>
<path d="M 61.2 179.2 Q 48.7 168.4 31.3 161.5" stroke="#5d6f7b" stroke-width="0.97" stroke-linecap="round" opacity="0.676"/>
<path d="M 61.3 177.4 Q 47.7 166.2 29.1 159.3" stroke="#3d4e5a" stroke-width="0.98" stroke-linecap="round" opacity="0.684"/>
<path d="M 61.4 175.7 Q 45.9 163.1 24.7 155.4" stroke="#384955" stroke-width="0.99" stroke-linecap="round" opacity="0.691"/>
<path d="M 61.4 175.7 Q 44.9 164.3 23.2 157.2" stroke="#7b858b" stroke-width="0.59" stroke-linecap="round" opacity="0.346"/>
<path d="M 61.4 174.0 Q 46.2 162.9 25.2 156.9" stroke="#475864" stroke-width="1.00" stroke-linecap="round" opacity="0.698"/>
<path d="M 61.5 172.2 Q 47.0 160.3 26.9 153.0" stroke="#536571" stroke-width="1.00" stroke-linecap="round" opacity="0.705"/>
<path d="M 61.6 170.5 Q 47.6 159.1 28.2 152.1" stroke="#586a76" stroke-width="1.01" stroke-linecap="round" opacity="0.712"/>
<path d="M 61.6 170.5 Q 46.6 160.3 26.7 153.9" stroke="#909aa0" stroke-width="0.61" stroke-linecap="round" opacity="0.356"/>
<path d="M 61.7 168.8 Q 46.5 157.9 25.6 152.0" stroke="#475864" stroke-width="1.02" stroke-linecap="round" opacity="0.718"/>
<path d="M 61.8 167.1 Q 46.7 155.9 25.9 149.6" stroke="#536571" stroke-width="1.03" stroke-linecap="round" opacity="0.725"/>
<path d="M 61.9 165.3 Q 45.9 152.3 23.9 144.3" stroke="#3e4f5b" stroke-width="1.03" stroke-linecap="round" opacity="0.731"/>
<path d="M 61.9 165.3 Q 44.9 153.5 22.4 146.1" stroke="#7f898f" stroke-width="0.62" stroke-linecap="round" opacity="0.365"/>
<path d="M 62.0 163.6 Q 45.9 151.6 23.7 144.9" stroke="#3c4d59" stroke-width="1.04" stroke-linecap="round" opacity="0.736"/>
<path d="M 62.0 161.9 Q 47.2 149.9 26.6 142.7" stroke="#42535f" stroke-width="1.05" stroke-linecap="round" opacity="0.742"/>
<path d="M 62.1 160.1 Q 47.0 148.1 26.1 140.9" stroke="#5f707c" stroke-width="1.05" stroke-linecap="round" opacity="0.747"/>
<path d="M 62.1 160.1 Q 46.0 149.3 24.6 142.7" stroke="#949ea4" stroke-width="0.63" stroke-linecap="round" opacity="0.374"/>
<path d="M 62.2 158.4 Q 45.3 146.5 21.8 140.2" stroke="#4e5f6b" stroke-width="1.06" stroke-linecap="round" opacity="0.752"/>
<path d="M 62.3 156.7 Q 45.9 144.0 23.2 136.6" stroke="#364753" stroke-width="1.07" stroke-linecap="round" opacity="0.757"/>
<path d="M 62.4 155.0 Q 44.5 142.2 19.7 135.4" stroke="#465763" stroke-width="1.07" stroke-linecap="round" opacity="0.762"/>
<path d="M 62.4 155.0 Q 43.5 143.4 18.2 137.2" stroke="#848e94" stroke-width="0.64" stroke-linecap="round" opacity="0.381"/>
<path d="M 62.5 153.2 Q 45.0 140.5 20.8 133.5" stroke="#5b6d79" stroke-width="1.08" stroke-linecap="round" opacity="0.766"/>
<path d="M 62.6 151.5 Q 45.7 138.7 22.4 131.4" stroke="#4b5c68" stroke-width="1.08" stroke-linecap="round" opacity="0.77"/>
<path d="M 62.7 149.8 Q 47.6 137.9 26.7 130.9" stroke="#566874" stroke-width="1.09" stroke-linecap="round" opacity="0.774"/>
<path d="M 62.7 149.8 Q 46.6 139.1 25.2 132.7" stroke="#8e999f" stroke-width="0.65" stroke-linecap="round" opacity="0.387"/>
<path d="M 62.8 148.0 Q 45.7 134.6 22.1 126.6" stroke="#485965" stroke-width="1.09" stroke-linecap="round" opacity="0.777"/>
<path d="M 62.9 146.3 Q 46.1 135.2 22.8 129.8" stroke="#4b5d69" stroke-width="1.10" stroke-linecap="round" opacity="0.78"/>
<path d="M 63.0 144.6 Q 46.3 131.7 23.3 124.3" stroke="#394a56" stroke-width="1.10" stroke-linecap="round" opacity="0.784"/>
<path d="M 63.0 144.6 Q 45.3 132.9 21.8 126.1" stroke="#7c868c" stroke-width="0.66" stroke-linecap="round" opacity="0.392"/>
<path d="M 63.1 142.9 Q 47.4 131.6 25.8 125.5" stroke="#41525e" stroke-width="1.10" stroke-linecap="round" opacity="0.786"/>
<path d="M 63.2 141.1 Q 50.5 131.0 33.0 124.9" stroke="#4b5c68" stroke-width="1.11" stroke-linecap="round" opacity="0.276"/>
<path d="M 63.3 139.4 Q 49.8 129.3 31.2 123.6" stroke="#5c6e7a" stroke-width="1.11" stroke-linecap="round" opacity="0.277"/>
<path d="M 63.3 139.4 Q 48.8 130.5 29.7 125.4" stroke="#929da3" stroke-width="0.67" stroke-linecap="round" opacity="0.138"/>
<path d="M 63.4 137.7 Q 49.6 127.2 30.5 121.3" stroke="#40515d" stroke-width="1.11" stroke-linecap="round" opacity="0.278"/>
<path d="M 63.5 135.9 Q 45.8 123.1 21.4 116.0" stroke="#354652" stroke-width="1.11" stroke-linecap="round" opacity="0.795"/>
<path d="M 63.6 134.2 Q 46.9 122.3 23.9 115.9" stroke="#4f606c" stroke-width="1.12" stroke-linecap="round" opacity="0.796"/>
<path d="M 63.6 134.2 Q 45.9 123.5 22.4 117.7" stroke="#8a949a" stroke-width="0.67" stroke-linecap="round" opacity="0.398"/>
<path d="M 63.7 132.5 Q 46.8 120.5 23.4 114.2" stroke="#5e707c" stroke-width="1.12" stroke-linecap="round" opacity="0.798"/>
<path d="M 63.8 130.8 Q 47.2 118.9 24.3 112.4" stroke="#485965" stroke-width="1.12" stroke-linecap="round" opacity="0.799"/>
<path d="M 63.9 129.0 Q 47.7 118.4 25.4 113.2" stroke="#41525e" stroke-width="1.12" stroke-linecap="round" opacity="0.799"/>
<path d="M 63.9 129.0 Q 46.7 119.6 23.9 115.0" stroke="#818b91" stroke-width="0.67" stroke-linecap="round" opacity="0.4"/>
<path d="M 64.0 127.3 Q 45.4 114.1 19.8 107.1" stroke="#374854" stroke-width="1.12" stroke-linecap="round" opacity="0.8"/>
<path d="M 64.0 125.6 Q 48.2 114.2 26.2 108.1" stroke="#40515d" stroke-width="1.12" stroke-linecap="round" opacity="0.8"/>
<path d="M 64.1 123.8 Q 45.9 111.0 20.7 104.2" stroke="#465763" stroke-width="1.12" stroke-linecap="round" opacity="0.8"/>
<path d="M 64.1 123.8 Q 44.9 112.2 19.2 106.0" stroke="#848e94" stroke-width="0.67" stroke-linecap="round" opacity="0.4"/>
<path d="M 64.2 122.1 Q 46.3 109.7 21.6 103.3" stroke="#3d4e5a" stroke-width="1.12" stroke-linecap="round" opacity="0.8"/>
<path d="M 64.3 120.4 Q 45.5 108.9 19.6 103.8" stroke="#42535f" stroke-width="1.12" stroke-linecap="round" opacity="0.799"/>
<path d="M 64.4 118.7 Q 46.3 105.6 21.4 98.5" stroke="#576874" stroke-width="1.12" stroke-linecap="round" opacity="0.798"/>
<path d="M 64.4 118.7 Q 45.3 106.8 19.9 100.3" stroke="#8f999f" stroke-width="0.67" stroke-linecap="round" opacity="0.399"/>
<path d="M 64.4 116.9 Q 48.4 106.0 26.3 100.5" stroke="#445662" stroke-width="1.12" stroke-linecap="round" opacity="0.797"/>
<path d="M 64.5 115.2 Q 47.5 105.3 24.1 101.3" stroke="#364753" stroke-width="1.11" stroke-linecap="round" opacity="0.796"/>
<path d="M 64.6 113.5 Q 45.7 102.3 19.7 97.8" stroke="#51636f" stroke-width="1.11" stroke-linecap="round" opacity="0.794"/>
<path d="M 64.6 113.5 Q 44.7 103.5 18.2 99.6" stroke="#8b969c" stroke-width="0.67" stroke-linecap="round" opacity="0.397"/>
<path d="M 64.6 111.7 Q 46.9 99.5 22.4 93.2" stroke="#3a4b57" stroke-width="1.11" stroke-linecap="round" opacity="0.792"/>
<path d="M 64.7 110.0 Q 47.3 100.3 23.3 96.7" stroke="#475965" stroke-width="1.11" stroke-linecap="round" opacity="0.79"/>
<path d="M 64.7 108.3 Q 47.6 98.4 24.0 94.5" stroke="#475864" stroke-width="1.11" stroke-linecap="round" opacity="0.788"/>
<path d="M 64.7 108.3 Q 46.6 99.6 22.5 96.3" stroke="#858f95" stroke-width="0.66" stroke-linecap="round" opacity="0.394"/>
<path d="M 64.8 106.6 Q 47.6 97.1 23.8 93.9" stroke="#5d6f7b" stroke-width="1.10" stroke-linecap="round" opacity="0.785"/>
<path d="M 64.8 104.8 Q 48.9 96.0 26.9 92.8" stroke="#566874" stroke-width="1.10" stroke-linecap="round" opacity="0.783"/>
<path d="M 64.8 103.1 Q 47.9 93.5 24.4 89.9" stroke="#3d4f5b" stroke-width="1.09" stroke-linecap="round" opacity="0.779"/>
<path d="M 64.8 103.1 Q 46.9 94.7 22.9 91.7" stroke="#7e898f" stroke-width="0.66" stroke-linecap="round" opacity="0.39"/>
<path d="M 64.8 101.4 Q 48.0 90.6 24.8 85.6" stroke="#3a4b57" stroke-width="1.09" stroke-linecap="round" opacity="0.776"/>
<path d="M 64.9 99.6 Q 47.4 89.2 23.2 84.8" stroke="#3c4d59" stroke-width="1.09" stroke-linecap="round" opacity="0.772"/>
<path d="M 64.9 97.9 Q 49.1 89.8 27.3 87.5" stroke="#586975" stroke-width="1.08" stroke-linecap="round" opacity="0.769"/>
<path d="M 64.9 97.9 Q 48.1 91.0 25.8 89.3" stroke="#909aa0" stroke-width="0.65" stroke-linecap="round" opacity="0.384"/>
<path d="M 64.9 96.2 Q 48.7 87.1 26.4 83.7" stroke="#50626e" stroke-width="1.08" stroke-linecap="round" opacity="0.764"/>
<path d="M 64.8 94.5 Q 47.2 85.9 22.9 83.7" stroke="#3b4c58" stroke-width="1.07" stroke-linecap="round" opacity="0.76"/>
<path d="M 64.8 92.7 Q 50.8 86.1 31.4 84.6" stroke="#3e4f5b" stroke-width="1.06" stroke-linecap="round" opacity="0.264"/>
<path d="M 64.8 92.7 Q 49.8 87.3 29.9 86.4" stroke="#7f898f" stroke-width="0.64" stroke-linecap="round" opacity="0.132"/>
<path d="M 64.8 91.0 Q 50.5 84.1 30.8 82.4" stroke="#5c6e7a" stroke-width="1.06" stroke-linecap="round" opacity="0.263"/>
<path d="M 64.8 89.3 Q 51.5 82.5 33.2 80.6" stroke="#5f717d" stroke-width="1.05" stroke-linecap="round" opacity="0.261"/>
<path d="M 64.7 87.6 Q 52.5 81.5 35.6 79.9" stroke="#374854" stroke-width="1.05" stroke-linecap="round" opacity="0.259"/>
<path d="M 64.7 87.6 Q 51.5 82.7 34.1 81.7" stroke="#7a848a" stroke-width="0.63" stroke-linecap="round" opacity="0.13"/>
<path d="M 64.6 85.8 Q 49.6 78.7 28.8 77.2" stroke="#5f717d" stroke-width="1.04" stroke-linecap="round" opacity="0.735"/>
<path d="M 64.6 84.1 Q 52.9 78.4 36.7 76.9" stroke="#526470" stroke-width="1.03" stroke-linecap="round" opacity="0.255"/>
<path d="M 64.5 82.4 Q 51.3 76.5 33.1 75.7" stroke="#465763" stroke-width="1.03" stroke-linecap="round" opacity="0.253"/>
<path d="M 64.5 82.4 Q 50.3 77.7 31.6 77.5" stroke="#848e94" stroke-width="0.62" stroke-linecap="round" opacity="0.126"/>
<path d="M 64.4 80.6 Q 52.7 75.8 36.5 75.5" stroke="#435460" stroke-width="1.02" stroke-linecap="round" opacity="0.251"/>
<path d="M 64.3 78.9 Q 48.0 72.0 25.5 71.2" stroke="#384955" stroke-width="1.01" stroke-linecap="round" opacity="0.71"/>
<path d="M 64.2 77.2 Q 48.3 70.4 26.5 69.6" stroke="#3b4c58" stroke-width="1.00" stroke-linecap="round" opacity="0.703"/>
<path d="M 64.2 77.2 Q 47.3 71.6 25.0 71.4" stroke="#7d878d" stroke-width="0.60" stroke-linecap="round" opacity="0.351"/>
<path d="M 64.0 75.5 Q 49.1 70.1 28.6 70.8" stroke="#576975" stroke-width="0.99" stroke-linecap="round" opacity="0.696"/>
<path d="M 63.9 73.7 Q 52.9 69.3 37.7 69.1" stroke="#4a5b67" stroke-width="0.98" stroke-linecap="round" opacity="0.241"/>
<path d="M 63.7 72.0 Q 53.1 67.3 38.6 66.7" stroke="#556773" stroke-width="0.98" stroke-linecap="round" opacity="0.238"/>
<path d="M 63.7 72.0 Q 52.1 68.5 37.1 68.5" stroke="#8e989e" stroke-width="0.59" stroke-linecap="round" opacity="0.119"/>
<path d="M 63.5 70.3 Q 52.0 65.5 36.2 65.2" stroke="#42535f" stroke-width="0.97" stroke-linecap="round" opacity="0.236"/>
<path d="M 63.3 68.5 Q 53.0 64.9 38.7 65.3" stroke="#4a5c68" stroke-width="0.96" stroke-linecap="round" opacity="0.233"/>
<path d="M 63.1 66.8 Q 48.6 61.5 28.7 61.9" stroke="#60717d" stroke-width="0.95" stroke-linecap="round" opacity="0.657"/>
<path d="M 63.1 66.8 Q 47.6 62.7 27.2 63.7" stroke="#959fa5" stroke-width="0.57" stroke-linecap="round" opacity="0.329"/>
<path d="M 62.8 65.1 Q 50.1 61.2 32.6 62.6" stroke="#364753" stroke-width="0.94" stroke-linecap="round" opacity="0.649"/>
<path d="M 62.6 63.4 Q 52.2 59.7 37.9 60.3" stroke="#60717d" stroke-width="0.93" stroke-linecap="round" opacity="0.224"/>
<path d="M 62.3 61.6 Q 51.5 58.3 36.5 59.4" stroke="#556773" stroke-width="0.92" stroke-linecap="round" opacity="0.221"/>
<path d="M 62.3 61.6 Q 50.5 59.5 35.0 61.2" stroke="#8e989e" stroke-width="0.55" stroke-linecap="round" opacity="0.11"/>
<path d="M 62.0 59.9 Q 51.5 56.7 37.0 57.8" stroke="#4a5b67" stroke-width="0.91" stroke-linecap="round" opacity="0.218"/>
<path d="M 61.7 58.2 Q 48.3 54.6 29.8 56.6" stroke="#5d6e7a" stroke-width="0.90" stroke-linecap="round" opacity="0.613"/>
<path d="M 61.3 56.4 Q 48.6 52.8 31.0 54.4" stroke="#394a56" stroke-width="0.89" stroke-linecap="round" opacity="0.603"/>
<path d="M 61.3 56.4 Q 47.6 54.0 29.5 56.2" stroke="#7c868c" stroke-width="0.53" stroke-linecap="round" opacity="0.302"/>
<path d="M 60.9 54.7 Q 48.3 51.9 30.9 54.7" stroke="#435460" stroke-width="0.88" stroke-linecap="round" opacity="0.593"/>
<path d="M 60.6 53.0 Q 48.8 50.6 32.7 53.4" stroke="#465763" stroke-width="0.87" stroke-linecap="round" opacity="0.583"/>
<path d="M 60.1 51.3 Q 48.4 48.2 32.1 50.3" stroke="#52636f" stroke-width="0.85" stroke-linecap="round" opacity="0.573"/>
<path d="M 60.1 51.3 Q 47.4 49.4 30.6 52.1" stroke="#8c969c" stroke-width="0.51" stroke-linecap="round" opacity="0.286"/>
<path d="M 59.7 49.5 Q 49.9 47.3 36.4 49.5" stroke="#536470" stroke-width="0.84" stroke-linecap="round" opacity="0.562"/>
<path d="M 59.2 47.8 Q 48.9 46.2 34.6 49.3" stroke="#40515d" stroke-width="0.83" stroke-linecap="round" opacity="0.551"/>
<path d="M 58.7 46.1 Q 48.7 44.7 35.0 48.1" stroke="#576975" stroke-width="0.82" stroke-linecap="round" opacity="0.54"/>
<path d="M 58.7 46.1 Q 47.7 45.9 33.5 49.9" stroke="#8f9aa0" stroke-width="0.49" stroke-linecap="round" opacity="0.27"/>
<path d="M 58.2 44.3 Q 49.5 42.7 37.5 45.0" stroke="#445662" stroke-width="0.81" stroke-linecap="round" opacity="0.529"/>
<path d="M 57.7 42.6 Q 49.1 41.3 37.4 43.8" stroke="#4b5c68" stroke-width="0.80" stroke-linecap="round" opacity="0.518"/>
<path d="M 57.1 40.9 Q 48.0 40.0 35.5 43.6" stroke="#50616d" stroke-width="0.78" stroke-linecap="round" opacity="0.506"/>
<path d="M 57.1 40.9 Q 47.0 41.2 34.0 45.4" stroke="#8a949a" stroke-width="0.47" stroke-linecap="round" opacity="0.253"/>
<path d="M 56.5 39.2 Q 48.6 38.2 37.7 40.9" stroke="#5f707c" stroke-width="0.77" stroke-linecap="round" opacity="0.494"/>
<path d="M 55.8 37.4 Q 48.2 37.0 37.7 40.4" stroke="#3b4c58" stroke-width="0.76" stroke-linecap="round" opacity="0.481"/>
<path d="M 55.1 35.7 Q 47.7 35.0 37.5 38.0" stroke="#384a56" stroke-width="0.75" stroke-linecap="round" opacity="0.469"/>
<path d="M 55.1 35.7 Q 46.7 36.2 36.0 39.8" stroke="#7b868c" stroke-width="0.45" stroke-linecap="round" opacity="0.234"/>
<path d="M 54.4 34.0 Q 47.6 33.8 38.1 37.2" stroke="#596b77" stroke-width="0.74" stroke-linecap="round" opacity="0.456"/>
<path d="M 53.7 32.2 Q 48.0 32.2 40.2 35.2" stroke="#51626e" stroke-width="0.72" stroke-linecap="round" opacity="0.442"/>
<path d="M 52.9 30.5 Q 47.0 30.7 38.8 34.0" stroke="#4d5e6a" stroke-width="0.71" stroke-linecap="round" opacity="0.428"/>
<path d="M 52.9 30.5 Q 46.0 31.9 37.3 35.8" stroke="#889299" stroke-width="0.43" stroke-linecap="round" opacity="0.214"/>
<path d="M 52.1 28.8 Q 46.9 29.0 39.9 31.9" stroke="#5e6f7b" stroke-width="0.70" stroke-linecap="round" opacity="0.414"/>
<path d="M 51.2 27.1 Q 47.2 27.4 41.7 30.1" stroke="#465763" stroke-width="0.69" stroke-linecap="round" opacity="0.399"/>
<path d="M 50.3 25.3 Q 46.4 25.5 41.0 27.8" stroke="#566874" stroke-width="0.67" stroke-linecap="round" opacity="0.384"/>
<path d="M 49.3 23.6 Q 46.0 23.9 41.5 26.0" stroke="#526470" stroke-width="0.66" stroke-linecap="round" opacity="0.368"/>
<path d="M 48.4 21.9 Q 45.9 22.1 42.5 23.6" stroke="#394a56" stroke-width="0.65" stroke-linecap="round" opacity="0.35"/>
<path d="M 47.3 20.1 Q 45.9 20.4 43.9 21.5" stroke="#51626e" stroke-width="0.64" stroke-linecap="round" opacity="0.331"/>
<path d="M 60.0 222.4 Q 66.0 221.0 70.8 220.7" stroke="#b68256" stroke-width="0.55" stroke-linecap="round" opacity="0.34"/>
<path d="M 60.1 220.6 Q 66.9 219.1 75.9 221.5" stroke="#b68155" stroke-width="0.55" stroke-linecap="round" opacity="0.34"/>
<path d="M 60.1 218.9 Q 66.6 218.1 79.2 224.4" stroke="#b3794e" stroke-width="0.55" stroke-linecap="round" opacity="0.34"/>
<path d="M 60.1 217.2 Q 67.2 215.3 73.3 214.6" stroke="#b57d52" stroke-width="0.55" stroke-linecap="round" opacity="0.34"/>
<path d="M 60.1 215.5 Q 67.4 213.5 76.8 213.5" stroke="#b78257" stroke-width="0.55" stroke-linecap="round" opacity="0.34"/>
<path d="M 60.1 213.7 Q 68.0 211.8 76.0 214.1" stroke="#b57e53" stroke-width="0.55" stroke-linecap="round" opacity="0.34"/>
<path d="M 60.2 212.0 Q 67.5 210.1 75.9 208.6" stroke="#b88559" stroke-width="0.55" stroke-linecap="round" opacity="0.34"/>
<path d="M 60.2 210.3 Q 68.1 207.6 81.4 208.3" stroke="#b2764c" stroke-width="0.55" stroke-linecap="round" opacity="0.34"/>
<path d="M 60.2 208.5 Q 68.7 206.0 75.8 212.1" stroke="#b47a50" stroke-width="0.55" stroke-linecap="round" opacity="0.34"/>
<path d="M 60.3 206.8 Q 69.7 203.2 79.7 205.4" stroke="#b07248" stroke-width="0.55" stroke-linecap="round" opacity="0.34"/>
<path d="M 60.3 205.1 Q 70.1 201.6 82.6 206.2" stroke="#b8855a" stroke-width="0.55" stroke-linecap="round" opacity="0.34"/>
<path d="M 60.4 203.4 Q 70.4 195.7 84.3 191.4" stroke="#495b67" stroke-width="0.82" stroke-linecap="round" opacity="0.544"/>
<path d="M 60.4 201.6 Q 69.7 194.4 82.5 190.3" stroke="#536470" stroke-width="0.84" stroke-linecap="round" opacity="0.555"/>
<path d="M 60.4 199.9 Q 70.0 192.4 83.3 187.9" stroke="#3c4d59" stroke-width="0.85" stroke-linecap="round" opacity="0.566"/>
<path d="M 60.5 198.2 Q 71.2 190.4 86.0 186.1" stroke="#50616d" stroke-width="0.86" stroke-linecap="round" opacity="0.576"/>
<path d="M 60.5 196.4 Q 70.3 188.4 83.8 183.4" stroke="#4c5d69" stroke-width="0.87" stroke-linecap="round" opacity="0.587"/>
<path d="M 60.6 194.7 Q 68.8 188.6 80.1 185.2" stroke="#536571" stroke-width="0.88" stroke-linecap="round" opacity="0.209"/>
<path d="M 60.7 193.0 Q 69.5 186.0 81.8 181.9" stroke="#4b5d69" stroke-width="0.89" stroke-linecap="round" opacity="0.212"/>
<path d="M 60.7 191.3 Q 70.2 184.1 83.2 180.1" stroke="#4f616d" stroke-width="0.90" stroke-linecap="round" opacity="0.216"/>
<path d="M 60.8 189.5 Q 73.1 181.9 90.0 178.6" stroke="#3c4d59" stroke-width="0.91" stroke-linecap="round" opacity="0.625"/>
<path d="M 60.8 187.8 Q 73.6 179.5 91.2 175.5" stroke="#5a6c78" stroke-width="0.92" stroke-linecap="round" opacity="0.634"/>
<path d="M 60.9 186.1 Q 73.5 177.0 90.9 172.0" stroke="#394a56" stroke-width="0.93" stroke-linecap="round" opacity="0.643"/>
<path d="M 60.9 186.1 Q 74.5 178.2 92.4 173.8" stroke="#7c868c" stroke-width="0.56" stroke-linecap="round" opacity="0.321"/>
<path d="M 61.0 184.3 Q 72.5 177.2 88.4 174.0" stroke="#5a6c78" stroke-width="0.94" stroke-linecap="round" opacity="0.652"/>
<path d="M 61.0 182.6 Q 72.6 174.0 88.6 169.1" stroke="#3e4f5b" stroke-width="0.95" stroke-linecap="round" opacity="0.66"/>
<path d="M 61.1 180.9 Q 73.5 173.0 90.5 169.3" stroke="#455662" stroke-width="0.96" stroke-linecap="round" opacity="0.668"/>
<path d="M 61.1 180.9 Q 74.5 174.2 92.0 171.1" stroke="#838d93" stroke-width="0.58" stroke-linecap="round" opacity="0.334"/>
<path d="M 61.2 179.2 Q 72.8 171.1 88.9 167.0" stroke="#4f616d" stroke-width="0.97" stroke-linecap="round" opacity="0.676"/>
<path d="M 61.3 177.4 Q 73.5 168.6 90.4 163.9" stroke="#4f606c" stroke-width="0.98" stroke-linecap="round" opacity="0.684"/>
<path d="M 61.4 175.7 Q 74.5 166.7 92.6 162.0" stroke="#495a66" stroke-width="0.99" stroke-linecap="round" opacity="0.691"/>
<path d="M 61.4 175.7 Q 75.5 167.9 94.1 163.8" stroke="#869096" stroke-width="0.59" stroke-linecap="round" opacity="0.346"/>
<path d="M 61.4 174.0 Q 74.8 165.8 93.2 162.1" stroke="#566874" stroke-width="1.00" stroke-linecap="round" opacity="0.698"/>
<path d="M 61.5 172.2 Q 74.9 162.9 93.4 157.9" stroke="#3b4c58" stroke-width="1.00" stroke-linecap="round" opacity="0.705"/>
<path d="M 61.6 170.5 Q 75.5 162.2 94.7 158.7" stroke="#445561" stroke-width="1.01" stroke-linecap="round" opacity="0.712"/>
<path d="M 61.6 170.5 Q 76.5 163.4 96.2 160.5" stroke="#838d93" stroke-width="0.61" stroke-linecap="round" opacity="0.356"/>
<path d="M 61.7 168.8 Q 74.8 160.8 92.8 157.2" stroke="#526470" stroke-width="1.02" stroke-linecap="round" opacity="0.718"/>
<path d="M 61.8 167.1 Q 76.1 158.2 96.0 154.4" stroke="#3e4f5b" stroke-width="1.03" stroke-linecap="round" opacity="0.725"/>
<path d="M 61.9 165.3 Q 76.3 156.7 96.3 153.1" stroke="#364753" stroke-width="1.03" stroke-linecap="round" opacity="0.731"/>
<path d="M 61.9 165.3 Q 77.3 157.9 97.8 154.9" stroke="#7a848a" stroke-width="0.62" stroke-linecap="round" opacity="0.365"/>
<path d="M 62.0 163.6 Q 76.5 155.0 96.6 151.4" stroke="#495b67" stroke-width="1.04" stroke-linecap="round" opacity="0.736"/>
<path d="M 62.0 161.9 Q 75.5 153.6 94.0 150.0" stroke="#526470" stroke-width="1.05" stroke-linecap="round" opacity="0.742"/>
<path d="M 62.1 160.1 Q 76.3 152.2 95.8 149.2" stroke="#485965" stroke-width="1.05" stroke-linecap="round" opacity="0.747"/>
<path d="M 62.1 160.1 Q 77.3 153.4 97.3 151.0" stroke="#858f95" stroke-width="0.63" stroke-linecap="round" opacity="0.374"/>
<path d="M 62.2 158.4 Q 75.6 149.5 94.2 145.1" stroke="#576874" stroke-width="1.06" stroke-linecap="round" opacity="0.752"/>
<path d="M 62.3 156.7 Q 77.8 146.6 99.1 141.8" stroke="#60717d" stroke-width="1.07" stroke-linecap="round" opacity="0.757"/>
<path d="M 62.4 155.0 Q 77.1 146.3 97.3 142.8" stroke="#41535f" stroke-width="1.07" stroke-linecap="round" opacity="0.762"/>
<path d="M 62.4 155.0 Q 78.1 147.5 98.8 144.6" stroke="#818b91" stroke-width="0.64" stroke-linecap="round" opacity="0.381"/>
<path d="M 62.5 153.2 Q 76.9 144.1 96.7 139.8" stroke="#425460" stroke-width="1.08" stroke-linecap="round" opacity="0.766"/>
<path d="M 62.6 151.5 Q 77.3 142.0 97.5 137.4" stroke="#5e707c" stroke-width="1.08" stroke-linecap="round" opacity="0.77"/>
<path d="M 62.7 149.8 Q 78.6 140.7 100.5 137.3" stroke="#435460" stroke-width="1.09" stroke-linecap="round" opacity="0.774"/>
<path d="M 62.7 149.8 Q 79.6 141.9 102.0 139.1" stroke="#828c92" stroke-width="0.65" stroke-linecap="round" opacity="0.387"/>
<path d="M 62.8 148.0 Q 79.3 138.5 102.1 134.7" stroke="#5f717d" stroke-width="1.09" stroke-linecap="round" opacity="0.777"/>
<path d="M 62.9 146.3 Q 77.9 136.9 98.6 132.7" stroke="#475864" stroke-width="1.10" stroke-linecap="round" opacity="0.78"/>
<path d="M 63.0 144.6 Q 79.3 134.4 101.8 129.9" stroke="#364753" stroke-width="1.10" stroke-linecap="round" opacity="0.784"/>
<path d="M 63.0 144.6 Q 80.3 135.6 103.3 131.7" stroke="#7a848a" stroke-width="0.66" stroke-linecap="round" opacity="0.392"/>
<path d="M 63.1 142.9 Q 77.8 134.1 98.0 130.4" stroke="#51636f" stroke-width="1.10" stroke-linecap="round" opacity="0.786"/>
<path d="M 63.2 141.1 Q 76.2 134.4 94.1 132.3" stroke="#4d5e6a" stroke-width="1.11" stroke-linecap="round" opacity="0.276"/>
<path d="M 63.3 139.4 Q 74.8 132.7 90.7 130.0" stroke="#546571" stroke-width="1.11" stroke-linecap="round" opacity="0.277"/>
<path d="M 63.3 139.4 Q 75.8 133.9 92.2 131.8" stroke="#8d979d" stroke-width="0.67" stroke-linecap="round" opacity="0.138"/>
<path d="M 63.4 137.7 Q 76.0 130.3 93.3 127.2" stroke="#485965" stroke-width="1.11" stroke-linecap="round" opacity="0.278"/>
<path d="M 63.5 135.9 Q 79.2 128.2 100.8 126.2" stroke="#4c5e6a" stroke-width="1.11" stroke-linecap="round" opacity="0.795"/>
<path d="M 63.6 134.2 Q 78.4 126.9 98.9 124.9" stroke="#576874" stroke-width="1.12" stroke-linecap="round" opacity="0.796"/>
<path d="M 63.6 134.2 Q 79.4 128.1 100.4 126.7" stroke="#8f999f" stroke-width="0.67" stroke-linecap="round" opacity="0.398"/>
<path d="M 63.7 132.5 Q 79.2 123.8 100.6 120.6" stroke="#445561" stroke-width="1.12" stroke-linecap="round" opacity="0.798"/>
<path d="M 63.8 130.8 Q 80.6 121.0 103.9 117.2" stroke="#5e707c" stroke-width="1.12" stroke-linecap="round" opacity="0.799"/>
<path d="M 63.9 129.0 Q 80.1 120.0 102.5 116.7" stroke="#394a56" stroke-width="1.12" stroke-linecap="round" opacity="0.799"/>
<path d="M 63.9 129.0 Q 81.1 121.2 104.0 118.5" stroke="#7c868c" stroke-width="0.67" stroke-linecap="round" opacity="0.4"/>
<path d="M 64.0 127.3 Q 78.1 118.6 97.7 114.8" stroke="#5d6e7a" stroke-width="1.12" stroke-linecap="round" opacity="0.8"/>
<path d="M 64.0 125.6 Q 79.3 116.2 100.4 112.2" stroke="#50616d" stroke-width="1.12" stroke-linecap="round" opacity="0.8"/>
<path d="M 64.1 123.8 Q 81.0 115.3 104.4 112.9" stroke="#3f515d" stroke-width="1.12" stroke-linecap="round" opacity="0.8"/>
<path d="M 64.1 123.8 Q 82.0 116.5 105.9 114.7" stroke="#7f8a90" stroke-width="0.67" stroke-linecap="round" opacity="0.4"/>
<path d="M 64.2 122.1 Q 79.0 113.6 99.4 110.2" stroke="#445561" stroke-width="1.12" stroke-linecap="round" opacity="0.8"/>
<path d="M 64.3 120.4 Q 78.7 112.5 98.7 109.8" stroke="#5a6b77" stroke-width="1.12" stroke-linecap="round" opacity="0.799"/>
<path d="M 64.4 118.7 Q 81.0 110.4 104.1 108.2" stroke="#3f505c" stroke-width="1.12" stroke-linecap="round" opacity="0.798"/>
<path d="M 64.4 118.7 Q 82.0 111.6 105.6 110.0" stroke="#7f898f" stroke-width="0.67" stroke-linecap="round" opacity="0.399"/>
<path d="M 64.4 116.9 Q 80.0 108.4 101.4 105.3" stroke="#435561" stroke-width="1.12" stroke-linecap="round" opacity="0.797"/>
<path d="M 64.5 115.2 Q 80.3 107.2 102.1 105.0" stroke="#3e4f5b" stroke-width="1.11" stroke-linecap="round" opacity="0.796"/>
<path d="M 64.6 113.5 Q 79.2 105.4 99.5 102.6" stroke="#455662" stroke-width="1.11" stroke-linecap="round" opacity="0.794"/>
<path d="M 64.6 113.5 Q 80.2 106.6 101.0 104.4" stroke="#838d93" stroke-width="0.67" stroke-linecap="round" opacity="0.397"/>
<path d="M 64.6 111.7 Q 80.9 102.4 103.3 98.7" stroke="#62737f" stroke-width="1.11" stroke-linecap="round" opacity="0.792"/>
<path d="M 64.7 110.0 Q 78.9 102.6 98.6 100.3" stroke="#3e505c" stroke-width="1.11" stroke-linecap="round" opacity="0.79"/>
<path d="M 64.7 108.3 Q 80.9 99.0 103.3 95.5" stroke="#495a66" stroke-width="1.11" stroke-linecap="round" opacity="0.788"/>
<path d="M 64.7 108.3 Q 81.9 100.2 104.8 97.3" stroke="#869096" stroke-width="0.66" stroke-linecap="round" opacity="0.394"/>
<path d="M 64.8 106.6 Q 79.3 99.2 99.4 97.2" stroke="#52636f" stroke-width="1.10" stroke-linecap="round" opacity="0.785"/>
<path d="M 64.8 104.8 Q 78.4 96.9 97.3 93.8" stroke="#536470" stroke-width="1.10" stroke-linecap="round" opacity="0.783"/>
<path d="M 64.8 103.1 Q 79.1 95.5 98.9 93.1" stroke="#51636f" stroke-width="1.09" stroke-linecap="round" opacity="0.779"/>
<path d="M 64.8 103.1 Q 80.1 96.7 100.4 94.9" stroke="#8b969c" stroke-width="0.66" stroke-linecap="round" opacity="0.39"/>
<path d="M 64.8 101.4 Q 79.7 92.5 100.1 88.8" stroke="#3d4e5a" stroke-width="1.09" stroke-linecap="round" opacity="0.776"/>
<path d="M 64.9 99.6 Q 79.0 90.8 98.6 86.7" stroke="#40515d" stroke-width="1.09" stroke-linecap="round" opacity="0.772"/>
<path d="M 64.9 97.9 Q 79.9 89.3 100.6 85.9" stroke="#485965" stroke-width="1.08" stroke-linecap="round" opacity="0.769"/>
<path d="M 64.9 97.9 Q 80.9 90.5 102.1 87.7" stroke="#858f95" stroke-width="0.65" stroke-linecap="round" opacity="0.384"/>
<path d="M 64.9 96.2 Q 78.5 88.5 97.3 85.7" stroke="#42535f" stroke-width="1.08" stroke-linecap="round" opacity="0.764"/>
<path d="M 64.8 94.5 Q 78.9 85.6 98.3 81.6" stroke="#354652" stroke-width="1.07" stroke-linecap="round" opacity="0.76"/>
<path d="M 64.8 92.7 Q 75.9 86.9 91.1 85.0" stroke="#526470" stroke-width="1.06" stroke-linecap="round" opacity="0.264"/>
<path d="M 64.8 92.7 Q 76.9 88.1 92.6 86.8" stroke="#8c969c" stroke-width="0.64" stroke-linecap="round" opacity="0.132"/>
<path d="M 64.8 91.0 Q 76.3 84.9 92.3 83.0" stroke="#526470" stroke-width="1.06" stroke-linecap="round" opacity="0.263"/>
<path d="M 64.8 89.3 Q 76.2 82.2 91.9 79.1" stroke="#41535f" stroke-width="1.05" stroke-linecap="round" opacity="0.261"/>
<path d="M 64.7 87.6 Q 74.8 82.0 88.8 80.1" stroke="#4d5e6a" stroke-width="1.05" stroke-linecap="round" opacity="0.259"/>
<path d="M 64.7 87.6 Q 75.8 83.2 90.3 81.9" stroke="#889299" stroke-width="0.63" stroke-linecap="round" opacity="0.13"/>
<path d="M 64.6 85.8 Q 78.1 76.8 96.8 72.4" stroke="#586975" stroke-width="1.04" stroke-linecap="round" opacity="0.735"/>
<path d="M 64.6 84.1 Q 75.6 77.3 90.7 74.3" stroke="#465763" stroke-width="1.03" stroke-linecap="round" opacity="0.255"/>
<path d="M 64.5 82.4 Q 74.7 76.4 88.9 74.1" stroke="#576874" stroke-width="1.03" stroke-linecap="round" opacity="0.253"/>
<path d="M 64.5 82.4 Q 75.7 77.6 90.4 75.9" stroke="#8f999f" stroke-width="0.62" stroke-linecap="round" opacity="0.126"/>
<path d="M 64.4 80.6 Q 73.8 75.1 86.8 72.8" stroke="#4e5f6b" stroke-width="1.02" stroke-linecap="round" opacity="0.251"/>
<path d="M 64.3 78.9 Q 77.2 71.1 95.0 67.7" stroke="#40525e" stroke-width="1.01" stroke-linecap="round" opacity="0.71"/>
<path d="M 64.2 77.2 Q 76.7 70.1 94.0 67.6" stroke="#586a76" stroke-width="1.00" stroke-linecap="round" opacity="0.703"/>
<path d="M 64.2 77.2 Q 77.7 71.3 95.5 69.4" stroke="#909aa0" stroke-width="0.60" stroke-linecap="round" opacity="0.351"/>
<path d="M 64.0 75.5 Q 75.1 68.4 90.4 65.1" stroke="#394b57" stroke-width="0.99" stroke-linecap="round" opacity="0.696"/>
<path d="M 63.9 73.7 Q 73.3 68.2 86.3 66.1" stroke="#354652" stroke-width="0.98" stroke-linecap="round" opacity="0.241"/>
<path d="M 63.7 72.0 Q 73.3 65.4 86.6 62.1" stroke="#536470" stroke-width="0.98" stroke-linecap="round" opacity="0.238"/>
<path d="M 63.7 72.0 Q 74.3 66.6 88.1 63.9" stroke="#8c969c" stroke-width="0.59" stroke-linecap="round" opacity="0.119"/>
<path d="M 63.5 70.3 Q 72.1 64.7 84.0 62.0" stroke="#556773" stroke-width="0.97" stroke-linecap="round" opacity="0.236"/>
<path d="M 63.3 68.5 Q 71.6 63.4 83.0 61.2" stroke="#394b57" stroke-width="0.96" stroke-linecap="round" opacity="0.233"/>
<path d="M 63.1 66.8 Q 73.5 60.3 87.9 57.3" stroke="#4e5f6b" stroke-width="0.95" stroke-linecap="round" opacity="0.657"/>
<path d="M 63.1 66.8 Q 74.5 61.5 89.4 59.1" stroke="#899399" stroke-width="0.57" stroke-linecap="round" opacity="0.329"/>
<path d="M 62.8 65.1 Q 74.1 57.4 89.7 53.5" stroke="#3a4b57" stroke-width="0.94" stroke-linecap="round" opacity="0.649"/>
<path d="M 62.6 63.4 Q 70.6 57.3 81.7 53.9" stroke="#60727e" stroke-width="0.93" stroke-linecap="round" opacity="0.224"/>
<path d="M 62.3 61.6 Q 69.8 56.4 80.2 53.6" stroke="#3c4d59" stroke-width="0.92" stroke-linecap="round" opacity="0.221"/>
<path d="M 62.3 61.6 Q 70.8 57.6 81.7 55.4" stroke="#7d878e" stroke-width="0.55" stroke-linecap="round" opacity="0.11"/>
<path d="M 62.0 59.9 Q 70.2 54.0 81.6 50.8" stroke="#3a4b57" stroke-width="0.91" stroke-linecap="round" opacity="0.218"/>
<path d="M 61.7 58.2 Q 71.0 52.2 84.0 49.4" stroke="#42535f" stroke-width="0.90" stroke-linecap="round" opacity="0.613"/>
<path d="M 61.3 56.4 Q 70.6 50.1 83.3 46.8" stroke="#62737f" stroke-width="0.89" stroke-linecap="round" opacity="0.603"/>
<path d="M 61.3 56.4 Q 71.6 51.3 84.8 48.6" stroke="#96a0a6" stroke-width="0.53" stroke-linecap="round" opacity="0.302"/>
<path d="M 60.9 54.7 Q 70.1 47.4 82.8 43.0" stroke="#3e4f5b" stroke-width="0.88" stroke-linecap="round" opacity="0.593"/>
<path d="M 60.6 53.0 Q 68.7 46.9 79.9 43.6" stroke="#485a66" stroke-width="0.87" stroke-linecap="round" opacity="0.583"/>
<path d="M 60.1 51.3 Q 67.9 45.0 78.6 41.3" stroke="#566773" stroke-width="0.85" stroke-linecap="round" opacity="0.573"/>
<path d="M 60.1 51.3 Q 68.9 46.2 80.1 43.1" stroke="#8e989e" stroke-width="0.51" stroke-linecap="round" opacity="0.286"/>
<path d="M 59.7 49.5 Q 68.0 43.3 79.5 39.8" stroke="#4e5f6b" stroke-width="0.84" stroke-linecap="round" opacity="0.562"/>
<path d="M 59.2 47.8 Q 67.1 41.3 78.0 37.3" stroke="#60727e" stroke-width="0.83" stroke-linecap="round" opacity="0.551"/>
<path d="M 58.7 46.1 Q 66.3 39.8 76.7 36.0" stroke="#344551" stroke-width="0.82" stroke-linecap="round" opacity="0.54"/>
<path d="M 58.7 46.1 Q 67.3 41.0 78.2 37.8" stroke="#788288" stroke-width="0.49" stroke-linecap="round" opacity="0.27"/>
<path d="M 58.2 44.3 Q 65.0 38.4 74.4 34.5" stroke="#40515d" stroke-width="0.81" stroke-linecap="round" opacity="0.529"/>
<path d="M 57.7 42.6 Q 63.4 37.7 71.4 34.6" stroke="#455763" stroke-width="0.80" stroke-linecap="round" opacity="0.518"/>
<path d="M 57.1 40.9 Q 63.1 35.5 71.5 32.1" stroke="#495a66" stroke-width="0.78" stroke-linecap="round" opacity="0.506"/>
<path d="M 57.1 40.9 Q 64.1 36.7 73.0 33.9" stroke="#869096" stroke-width="0.47" stroke-linecap="round" opacity="0.253"/>
<path d="M 56.5 39.2 Q 62.1 33.7 70.0 30.1" stroke="#445561" stroke-width="0.77" stroke-linecap="round" opacity="0.494"/>
<path d="M 55.8 37.4 Q 60.6 32.5 67.2 28.9" stroke="#566874" stroke-width="0.76" stroke-linecap="round" opacity="0.481"/>
<path d="M 55.1 35.7 Q 59.6 31.4 65.9 28.4" stroke="#4d5e6a" stroke-width="0.75" stroke-linecap="round" opacity="0.469"/>
<path d="M 55.1 35.7 Q 60.6 32.6 67.4 30.2" stroke="#889299" stroke-width="0.45" stroke-linecap="round" opacity="0.234"/>
<path d="M 54.4 34.0 Q 58.5 29.9 64.1 27.0" stroke="#3d4e5a" stroke-width="0.74" stroke-linecap="round" opacity="0.456"/>
<path d="M 53.7 32.2 Q 57.5 27.9 62.9 24.6" stroke="#40515d" stroke-width="0.72" stroke-linecap="round" opacity="0.442"/>
<path d="M 52.9 30.5 Q 56.5 26.9 61.6 24.3" stroke="#3d4e5a" stroke-width="0.71" stroke-linecap="round" opacity="0.428"/>
<path d="M 52.9 30.5 Q 57.5 28.1 63.1 26.1" stroke="#7e888e" stroke-width="0.43" stroke-linecap="round" opacity="0.214"/>
<path d="M 52.1 28.8 Q 55.1 25.7 59.3 23.5" stroke="#566874" stroke-width="0.70" stroke-linecap="round" opacity="0.414"/>
<path d="M 51.2 27.1 Q 54.1 24.0 58.1 21.9" stroke="#42535f" stroke-width="0.69" stroke-linecap="round" opacity="0.399"/>
<path d="M 50.3 25.3 Q 52.6 22.6 55.9 20.5" stroke="#4b5c68" stroke-width="0.67" stroke-linecap="round" opacity="0.384"/>
<path d="M 49.3 23.6 Q 51.3 21.3 54.1 19.6" stroke="#5e707c" stroke-width="0.66" stroke-linecap="round" opacity="0.368"/>
<path d="M 48.4 21.9 Q 49.8 20.1 51.9 18.8" stroke="#566874" stroke-width="0.65" stroke-linecap="round" opacity="0.35"/>
<path d="M 47.3 20.1 Q 48.3 19.0 49.6 18.2" stroke="#556773" stroke-width="0.64" stroke-linecap="round" opacity="0.331"/>
<path d="M 64.9 100.4 Q 48.1 97.3 25.3 118.7" stroke="#a95f37" stroke-width="1.15" stroke-linecap="round" opacity="0.95"/>
<path d="M 60.0 232.0 L 60.0 229.6" stroke="#b8865a" stroke-width="3.55" stroke-linecap="round"/>
<path d="M 60.0 229.6 L 60.0 227.2" stroke="#b8865a" stroke-width="3.52" stroke-linecap="round"/>
<path d="M 60.0 227.2 L 60.0 224.9" stroke="#b8865a" stroke-width="3.48" stroke-linecap="round"/>
<path d="M 60.0 224.9 L 60.0 222.5" stroke="#b8865a" stroke-width="3.45" stroke-linecap="round"/>
<path d="M 60.0 222.5 L 60.1 220.1" stroke="#b8865a" stroke-width="3.41" stroke-linecap="round"/>
<path d="M 60.1 220.1 L 60.1 217.7" stroke="#b8865a" stroke-width="3.38" stroke-linecap="round"/>
<path d="M 60.1 217.7 L 60.1 215.4" stroke="#364753" stroke-width="3.34" stroke-linecap="round"/>
<path d="M 60.1 215.4 L 60.2 213.0" stroke="#364753" stroke-width="3.31" stroke-linecap="round"/>
<path d="M 60.2 213.0 L 60.2 210.6" stroke="#374854" stroke-width="3.27" stroke-linecap="round"/>
<path d="M 60.2 210.6 L 60.2 208.2" stroke="#374854" stroke-width="3.24" stroke-linecap="round"/>
<path d="M 60.2 208.2 L 60.3 205.8" stroke="#374854" stroke-width="3.21" stroke-linecap="round"/>
<path d="M 60.3 205.8 L 60.4 203.5" stroke="#374955" stroke-width="3.17" stroke-linecap="round"/>
<path d="M 60.4 203.5 L 60.4 201.1" stroke="#384955" stroke-width="3.14" stroke-linecap="round"/>
<path d="M 60.4 201.1 L 60.5 198.7" stroke="#384955" stroke-width="3.10" stroke-linecap="round"/>
<path d="M 60.5 198.7 L 60.6 196.3" stroke="#384a56" stroke-width="3.07" stroke-linecap="round"/>
<path d="M 60.6 196.3 L 60.6 194.0" stroke="#394a56" stroke-width="3.03" stroke-linecap="round"/>
<path d="M 60.6 194.0 L 60.7 191.6" stroke="#394a56" stroke-width="3.00" stroke-linecap="round"/>
<path d="M 60.7 191.6 L 60.8 189.2" stroke="#394a56" stroke-width="2.96" stroke-linecap="round"/>
<path d="M 60.8 189.2 L 60.9 186.8" stroke="#3a4b57" stroke-width="2.93" stroke-linecap="round"/>
<path d="M 60.9 186.8 L 61.0 184.4" stroke="#3a4b57" stroke-width="2.90" stroke-linecap="round"/>
<path d="M 61.0 184.4 L 61.1 182.1" stroke="#3a4b57" stroke-width="2.86" stroke-linecap="round"/>
<path d="M 61.1 182.1 L 61.2 179.7" stroke="#3b4c58" stroke-width="2.83" stroke-linecap="round"/>
<path d="M 61.2 179.7 L 61.3 177.3" stroke="#3b4c58" stroke-width="2.79" stroke-linecap="round"/>
<path d="M 61.3 177.3 L 61.4 174.9" stroke="#3b4c58" stroke-width="2.76" stroke-linecap="round"/>
<path d="M 61.4 174.9 L 61.5 172.6" stroke="#3c4d59" stroke-width="2.72" stroke-linecap="round"/>
<path d="M 61.5 172.6 L 61.6 170.2" stroke="#3c4d59" stroke-width="2.69" stroke-linecap="round"/>
<path d="M 61.6 170.2 L 61.7 167.8" stroke="#3c4d59" stroke-width="2.65" stroke-linecap="round"/>
<path d="M 61.7 167.8 L 61.9 165.4" stroke="#3d4e5a" stroke-width="2.62" stroke-linecap="round"/>
<path d="M 61.9 165.4 L 62.0 163.0" stroke="#3d4e5a" stroke-width="2.59" stroke-linecap="round"/>
<path d="M 62.0 163.0 L 62.1 160.7" stroke="#3d4e5a" stroke-width="2.55" stroke-linecap="round"/>
<path d="M 62.1 160.7 L 62.2 158.3" stroke="#3e4f5b" stroke-width="2.52" stroke-linecap="round"/>
<path d="M 62.2 158.3 L 62.4 155.9" stroke="#3e4f5b" stroke-width="2.48" stroke-linecap="round"/>
<path d="M 62.4 155.9 L 62.5 153.5" stroke="#3e4f5b" stroke-width="2.45" stroke-linecap="round"/>
<path d="M 62.5 153.5 L 62.6 151.2" stroke="#3e505c" stroke-width="2.41" stroke-linecap="round"/>
<path d="M 62.6 151.2 L 62.8 148.8" stroke="#3f505c" stroke-width="2.38" stroke-linecap="round"/>
<path d="M 62.8 148.8 L 62.9 146.4" stroke="#3f505c" stroke-width="2.34" stroke-linecap="round"/>
<path d="M 62.9 146.4 L 63.0 144.0" stroke="#3f515d" stroke-width="2.31" stroke-linecap="round"/>
<path d="M 63.0 144.0 L 63.2 141.6" stroke="#40515d" stroke-width="2.28" stroke-linecap="round"/>
<path d="M 63.2 141.6 L 63.3 139.3" stroke="#40515d" stroke-width="2.24" stroke-linecap="round"/>
<path d="M 63.3 139.3 L 63.4 136.9" stroke="#40525e" stroke-width="2.21" stroke-linecap="round"/>
<path d="M 63.4 136.9 L 63.6 134.5" stroke="#41525e" stroke-width="2.17" stroke-linecap="round"/>
<path d="M 63.6 134.5 L 63.7 132.1" stroke="#41525e" stroke-width="2.14" stroke-linecap="round"/>
<path d="M 63.7 132.1 L 63.8 129.8" stroke="#41535f" stroke-width="2.10" stroke-linecap="round"/>
<path d="M 63.8 129.8 L 64.0 127.4" stroke="#42535f" stroke-width="2.07" stroke-linecap="round"/>
<path d="M 64.0 127.4 L 64.1 125.0" stroke="#42535f" stroke-width="2.03" stroke-linecap="round"/>
<path d="M 64.1 125.0 L 64.2 122.6" stroke="#425460" stroke-width="2.00" stroke-linecap="round"/>
<path d="M 64.2 122.6 L 64.3 120.2" stroke="#435460" stroke-width="1.97" stroke-linecap="round"/>
<path d="M 64.3 120.2 L 64.4 117.9" stroke="#435460" stroke-width="1.93" stroke-linecap="round"/>
<path d="M 64.4 117.9 L 64.5 115.5" stroke="#435460" stroke-width="1.90" stroke-linecap="round"/>
<path d="M 64.5 115.5 L 64.6 113.1" stroke="#445561" stroke-width="1.86" stroke-linecap="round"/>
<path d="M 64.6 113.1 L 64.6 110.7" stroke="#445561" stroke-width="1.83" stroke-linecap="round"/>
<path d="M 64.6 110.7 L 64.7 108.4" stroke="#445561" stroke-width="1.79" stroke-linecap="round"/>
<path d="M 64.7 108.4 L 64.8 106.0" stroke="#445662" stroke-width="1.76" stroke-linecap="round"/>
<path d="M 64.8 106.0 L 64.8 103.6" stroke="#455662" stroke-width="1.72" stroke-linecap="round"/>
<path d="M 64.8 103.6 L 64.8 101.2" stroke="#455662" stroke-width="1.69" stroke-linecap="round"/>
<path d="M 64.8 101.2 L 64.9 98.8" stroke="#455763" stroke-width="1.66" stroke-linecap="round"/>
<path d="M 64.9 98.8 L 64.9 96.5" stroke="#465763" stroke-width="1.62" stroke-linecap="round"/>
<path d="M 64.9 96.5 L 64.8 94.1" stroke="#465763" stroke-width="1.59" stroke-linecap="round"/>
<path d="M 64.8 94.1 L 64.8 91.7" stroke="#465864" stroke-width="1.55" stroke-linecap="round"/>
<path d="M 64.8 91.7 L 64.8 89.3" stroke="#475864" stroke-width="1.52" stroke-linecap="round"/>
<path d="M 64.8 89.3 L 64.7 87.0" stroke="#475864" stroke-width="1.48" stroke-linecap="round"/>
<path d="M 64.7 87.0 L 64.6 84.6" stroke="#475965" stroke-width="1.45" stroke-linecap="round"/>
<path d="M 64.6 84.6 L 64.5 82.2" stroke="#485965" stroke-width="1.41" stroke-linecap="round"/>
<path d="M 64.5 82.2 L 64.3 79.8" stroke="#485965" stroke-width="1.38" stroke-linecap="round"/>
<path d="M 64.3 79.8 L 64.2 77.4" stroke="#485a66" stroke-width="1.35" stroke-linecap="round"/>
<path d="M 64.2 77.4 L 64.0 75.1" stroke="#495a66" stroke-width="1.31" stroke-linecap="round"/>
<path d="M 64.0 75.1 L 63.8 72.7" stroke="#495a66" stroke-width="1.28" stroke-linecap="round"/>
<path d="M 63.8 72.7 L 63.5 70.3" stroke="#495b67" stroke-width="1.24" stroke-linecap="round"/>
<path d="M 63.5 70.3 L 63.2 67.9" stroke="#4a5b67" stroke-width="1.21" stroke-linecap="round"/>
<path d="M 63.2 67.9 L 62.9 65.6" stroke="#4a5b67" stroke-width="1.17" stroke-linecap="round"/>
<path d="M 62.9 65.6 L 62.5 63.2" stroke="#4a5c68" stroke-width="1.14" stroke-linecap="round"/>
<path d="M 62.5 63.2 L 62.1 60.8" stroke="#4a5c68" stroke-width="1.10" stroke-linecap="round"/>
<path d="M 62.1 60.8 L 61.7 58.4" stroke="#4b5c68" stroke-width="1.07" stroke-linecap="round"/>
<path d="M 61.7 58.4 L 61.2 56.0" stroke="#4b5d69" stroke-width="1.04" stroke-linecap="round"/>
<path d="M 61.2 56.0 L 60.7 53.7" stroke="#4b5d69" stroke-width="1.00" stroke-linecap="round"/>
<path d="M 60.7 53.7 L 60.1 51.3" stroke="#4c5d69" stroke-width="0.97" stroke-linecap="round"/>
<path d="M 60.1 51.3 L 59.5 48.9" stroke="#4c5d69" stroke-width="0.93" stroke-linecap="round"/>
<path d="M 59.5 48.9 L 58.9 46.5" stroke="#4c5e6a" stroke-width="0.90" stroke-linecap="round"/>
<path d="M 58.9 46.5 L 58.1 44.2" stroke="#4d5e6a" stroke-width="0.86" stroke-linecap="round"/>
<path d="M 58.1 44.2 L 57.4 41.8" stroke="#4d5e6a" stroke-width="0.83" stroke-linecap="round"/>
<path d="M 57.4 41.8 L 56.5 39.4" stroke="#4d5f6b" stroke-width="0.79" stroke-linecap="round"/>
<path d="M 56.5 39.4 L 55.6 37.0" stroke="#4e5f6b" stroke-width="0.76" stroke-linecap="round"/>
<path d="M 55.6 37.0 L 54.7 34.6" stroke="#4e5f6b" stroke-width="0.73" stroke-linecap="round"/>
<path d="M 54.7 34.6 L 53.7 32.3" stroke="#4e606c" stroke-width="0.69" stroke-linecap="round"/>
<path d="M 53.7 32.3 L 52.6 29.9" stroke="#4f606c" stroke-width="0.66" stroke-linecap="round"/>
<path d="M 52.6 29.9 L 51.4 27.5" stroke="#4f606c" stroke-width="0.62" stroke-linecap="round"/>
<path d="M 51.4 27.5 L 50.2 25.1" stroke="#4f616d" stroke-width="0.59" stroke-linecap="round"/>
<path d="M 50.2 25.1 L 48.9 22.8" stroke="#50616d" stroke-width="0.55" stroke-linecap="round"/>
<path d="M 48.9 22.8 L 47.5 20.4" stroke="#50616d" stroke-width="0.52" stroke-linecap="round"/>
<path d="M 47.5 20.4 L 46.0 18.0" stroke="#50626e" stroke-width="0.48" stroke-linecap="round"/>
<circle cx="60.0" cy="232.0" r="2.1" fill="#a95f37"/>
</svg>