<?xml version="1.0" encoding="utf-8" standalone="no"?>
<!DOCTYPE svg PUBLIC "-//W3C//DTD SVG 1.1//EN"
  "http://www.w3.org/Graphics/SVG/1.1/DTD/svg11.dtd">
<svg xmlns:xlink="http://www.w3.org/1999/xlink" width="590.4pt" height="316.8pt" viewBox="0 0 590.4 316.8" xmlns="http://www.w3.org/2000/svg" version="1.1">
 <metadata>
  <rdf:RDF xmlns:dc="http://purl.org/dc/elements/1.1/" xmlns:cc="http://creativecommons.org/ns#" xmlns:rdf="http://www.w3.org/1999/02/22-rdf-syntax-ns#">
   <cc:Work>
    <dc:type rdf:resource="http://purl.org/dc/dcmitype/StillImage"/>
    <dc:date>2026-07-05T03:07:01.321177</dc:date>
    <dc:format>image/svg+xml</dc:format>
    <dc:creator>
     <cc:Agent>
      <dc:title>Matplotlib v3.10.9, https://matplotlib.org/</dc:title>
     </cc:Agent>
    </dc:creator>
   </cc:Work>
  </rdf:RDF>
 </metadata>
 <defs>
  <style type="text/css">*{stroke-linejoin: round; stroke-linecap: butt}</style>
 </defs>
 <g id="figure_1">
  <g id="patch_1">
   <path d="M 0 316.8 
L 590.4 316.8 
L 590.4 0 
L 0 0 
z
" style="fill: #f7f4ef"/>
  </g>
  <g id="axes_1">
   <g id="patch_2">
    <path d="M 135.52 290.72 
L 572.58 290.72 
L 572.58 45.99125 
L 135.52 45.99125 
z
" style="fill: #f7f4ef"/>
   </g>
   <g id="patch_3">
    <path d="M -301.54 279.595966 
L 239.97734 279.595966 
L 239.97734 252.273777 
L -301.54 252.273777 
z
" clip-path="url(#p624482d7bb)" style="fill: #a95f37; opacity: 0.9"/>
   </g>
   <g id="patch_4">
    <path d="M -301.54 230.806343 
L 431.147384 230.806343 
L 431.147384 203.484154 
L -301.54 203.484154 
z
" clip-path="url(#p624482d7bb)" style="fill: #a95f37; opacity: 0.9"/>
   </g>
   <g id="patch_5">
    <path d="M -301.54 182.016719 
L 482.9827 182.016719 
L 482.9827 154.694531 
L -301.54 154.694531 
z
" clip-path="url(#p624482d7bb)" style="fill: #344551; opacity: 0.9"/>
   </g>
   <g id="patch_6">
    <path d="M -301.54 133.227096 
L 487.615536 133.227096 
L 487.615536 105.904907 
L -301.54 105.904907 
z
" clip-path="url(#p624482d7bb)" style="fill: #344551; opacity: 0.9"/>
   </g>
   <g id="patch_7">
    <path d="M -301.54 84.437473 
L 474.591148 84.437473 
L 474.591148 57.115284 
L -301.54 57.115284 
z
" clip-path="url(#p624482d7bb)" style="fill: #344551; opacity: 0.9"/>
   </g>
   <g id="matplotlib.axis_1">
    <g id="xtick_1">
     <g id="line2d_1">
      <path d="M 135.52 290.72 
L 135.52 45.99125 
" clip-path="url(#p624482d7bb)" style="fill: none; stroke: #344551; stroke-opacity: 0.08; stroke-width: 0.6; stroke-linecap: square"/>
     </g>
     <g id="line2d_2">
      <defs>
       <path id="m62c39a11f9" d="M 0 0 
L 0 3.5 
" style="stroke: #344551; stroke-width: 0.8"/>
      </defs>
      <g>
       <use xlink:href="#m62c39a11f9" x="135.52" y="290.72" style="fill: #344551; stroke: #344551; stroke-width: 0.8"/>
      </g>
     </g>
     <g id="text_1">
      <!-- 0.5 -->
      <g style="fill: #344551" transform="translate(127.42 304.2) scale(0.09 -0.09)">
       <defs>
        <path id="DMMono-Regular-30" d="M 1920 -77 
Q 1414 -77 1027 204 
Q 640 486 425 1004 
Q 211 1523 211 2240 
Q 211 2957 425 3475 
Q 640 3994 1027 4275 
Q 1414 4557 1920 4557 
Q 2432 4557 2816 4275 
Q 3200 3994 3414 3475 
Q 3629 2957 3629 2240 
Q 3629 1523 3414 1004 
Q 3200 486 2816 204 
Q 2432 -77 1920 -77 
z
M 762 2240 
Q 762 1805 854 1456 
Q 947 1107 1114 870 
L 2355 3949 
Q 2157 4058 1920 4058 
Q 1581 4058 1318 3837 
Q 1056 3616 909 3209 
Q 762 2803 762 2240 
z
M 1920 416 
Q 2259 416 2521 637 
Q 2784 858 2931 1267 
Q 3078 1677 3078 2240 
Q 3078 2675 2985 3024 
Q 2893 3373 2726 3610 
L 1478 525 
Q 1683 416 1920 416 
z
" transform="scale(0.015625)"/>
        <path id="DMMono-Regular-2e" d="M 1920 -13 
Q 1722 -13 1581 121 
Q 1440 256 1440 454 
Q 1440 646 1581 780 
Q 1722 915 1920 915 
Q 2118 915 2259 780 
Q 2400 646 2400 454 
Q 2400 256 2259 121 
Q 2118 -13 1920 -13 
z
" transform="scale(0.015625)"/>
        <path id="DMMono-Regular-35" d="M 1920 -77 
Q 1459 -77 1126 96 
Q 794 269 602 563 
Q 410 858 371 1235 
L 922 1235 
Q 979 870 1248 643 
Q 1517 416 1926 416 
Q 2406 416 2681 726 
Q 2957 1037 2957 1510 
Q 2957 2010 2675 2294 
Q 2394 2579 1946 2579 
Q 1587 2579 1334 2416 
Q 1082 2253 928 2003 
L 416 2003 
L 800 4480 
L 3194 4480 
L 3194 3987 
L 1222 3987 
L 986 2656 
L 1018 2656 
Q 1165 2816 1417 2937 
Q 1670 3059 2003 3059 
Q 2445 3059 2774 2870 
Q 3104 2682 3289 2333 
Q 3475 1984 3475 1517 
Q 3475 1082 3292 720 
Q 3110 358 2761 140 
Q 2413 -77 1920 -77 
z
" transform="scale(0.015625)"/>
       </defs>
       <use xlink:href="#DMMono-Regular-30"/>
       <use xlink:href="#DMMono-Regular-2e" transform="translate(59.999985 0)"/>
       <use xlink:href="#DMMono-Regular-35" transform="translate(119.999969 0)"/>
      </g>
     </g>
    </g>
    <g id="xtick_2">
     <g id="line2d_3">
      <path d="M 222.932 290.72 
L 222.932 45.99125 
" clip-path="url(#p624482d7bb)" style="fill: none; stroke: #344551; stroke-opacity: 0.08; stroke-width: 0.6; stroke-linecap: square"/>
     </g>
     <g id="line2d_4">
      <g>
       <use xlink:href="#m62c39a11f9" x="222.932" y="290.72" style="fill: #344551; stroke: #344551; stroke-width: 0.8"/>
      </g>
     </g>
     <g id="text_2">
      <!-- 0.6 -->
      <g style="fill: #344551" transform="translate(214.832 304.2) scale(0.09 -0.09)">
       <defs>
        <path id="DMMono-Regular-36" d="M 2010 -77 
Q 1421 -77 1053 208 
Q 685 493 509 976 
Q 333 1459 333 2067 
Q 333 2803 537 3363 
Q 742 3923 1129 4240 
Q 1517 4557 2061 4557 
Q 2490 4557 2794 4393 
Q 3098 4230 3274 3952 
Q 3450 3674 3482 3328 
L 2976 3328 
Q 2912 3667 2669 3868 
Q 2426 4070 2061 4070 
Q 1741 4070 1475 3868 
Q 1210 3667 1040 3248 
Q 870 2829 845 2182 
L 877 2182 
Q 1024 2458 1331 2662 
Q 1638 2867 2074 2867 
Q 2477 2867 2797 2681 
Q 3117 2496 3305 2169 
Q 3494 1843 3494 1427 
Q 3494 1018 3312 675 
Q 3130 333 2794 128 
Q 2458 -77 2010 -77 
z
M 1971 410 
Q 2413 410 2681 691 
Q 2950 973 2950 1395 
Q 2950 1824 2681 2102 
Q 2413 2381 1971 2381 
Q 1677 2381 1456 2253 
Q 1235 2125 1110 1901 
Q 986 1677 986 1395 
Q 986 1114 1110 890 
Q 1235 666 1456 538 
Q 1677 410 1971 410 
z
" transform="scale(0.015625)"/>
       </defs>
       <use xlink:href="#DMMono-Regular-30"/>
       <use xlink:href="#DMMono-Regular-2e" transform="translate(59.999985 0)"/>
       <use xlink:href="#DMMono-Regular-36" transform="translate(119.999969 0)"/>
      </g>
     </g>
    </g>
    <g id="xtick_3">
     <g id="line2d_5">
      <path d="M 310.344 290.72 
L 310.344 45.99125 
" clip-path="url(#p624482d7bb)" style="fill: none; stroke: #344551; stroke-opacity: 0.08; stroke-width: 0.6; stroke-linecap: square"/>
     </g>
     <g id="line2d_6">
      <g>
       <use xlink:href="#m62c39a11f9" x="310.344" y="290.72" style="fill: #344551; stroke: #344551; stroke-width: 0.8"/>
      </g>
     </g>
     <g id="text_3">
      <!-- 0.7 -->
      <g style="fill: #344551" transform="translate(302.244 304.2) scale(0.09 -0.09)">
       <defs>
        <path id="DMMono-Regular-37" d="M 1101 0 
L 2848 3994 
L 403 3994 
L 403 4480 
L 3405 4480 
L 3405 4051 
L 1670 0 
L 1101 0 
z
" transform="scale(0.015625)"/>
       </defs>
       <use xlink:href="#DMMono-Regular-30"/>
       <use xlink:href="#DMMono-Regular-2e" transform="translate(59.999985 0)"/>
       <use xlink:href="#DMMono-Regular-37" transform="translate(119.999969 0)"/>
      </g>
     </g>
    </g>
    <g id="xtick_4">
     <g id="line2d_7">
      <path d="M 397.756 290.72 
L 397.756 45.99125 
" clip-path="url(#p624482d7bb)" style="fill: none; stroke: #344551; stroke-opacity: 0.08; stroke-width: 0.6; stroke-linecap: square"/>
     </g>
     <g id="line2d_8">
      <g>
       <use xlink:href="#m62c39a11f9" x="397.756" y="290.72" style="fill: #344551; stroke: #344551; stroke-width: 0.8"/>
      </g>
     </g>
     <g id="text_4">
      <!-- 0.8 -->
      <g style="fill: #344551" transform="translate(389.656 304.2) scale(0.09 -0.09)">
       <defs>
        <path id="DMMono-Regular-38" d="M 1920 -77 
Q 1472 -77 1136 92 
Q 800 262 608 556 
Q 416 851 416 1229 
Q 416 1651 640 1945 
Q 864 2240 1158 2355 
L 1158 2387 
Q 877 2522 707 2774 
Q 538 3027 538 3366 
Q 538 3693 707 3965 
Q 877 4237 1190 4397 
Q 1504 4557 1920 4557 
Q 2330 4557 2640 4397 
Q 2950 4237 3126 3965 
Q 3302 3693 3302 3366 
Q 3302 3027 3132 2774 
Q 2963 2522 2682 2387 
L 2682 2355 
Q 2976 2240 3200 1945 
Q 3424 1651 3424 1229 
Q 3424 851 3232 556 
Q 3040 262 2704 92 
Q 2368 -77 1920 -77 
z
M 1920 2586 
Q 2317 2586 2544 2794 
Q 2771 3002 2771 3334 
Q 2771 3661 2544 3869 
Q 2317 4077 1920 4077 
Q 1523 4077 1296 3869 
Q 1069 3661 1069 3334 
Q 1069 3002 1296 2794 
Q 1523 2586 1920 2586 
z
M 1920 410 
Q 2349 410 2614 630 
Q 2880 851 2880 1274 
Q 2880 1690 2614 1910 
Q 2349 2131 1920 2131 
Q 1491 2131 1225 1910 
Q 960 1690 960 1274 
Q 960 851 1225 630 
Q 1491 410 1920 410 
z
" transform="scale(0.015625)"/>
       </defs>
       <use xlink:href="#DMMono-Regular-30"/>
       <use xlink:href="#DMMono-Regular-2e" transform="translate(59.999985 0)"/>
       <use xlink:href="#DMMono-Regular-38" transform="translate(119.999969 0)"/>
      </g>
     </g>
    </g>
    <g id="xtick_5">
     <g id="line2d_9">
      <path d="M 485.168 290.72 
L 485.168 45.99125 
" clip-path="url(#p624482d7bb)" style="fill: none; stroke: #344551; stroke-opacity: 0.08; stroke-width: 0.6; stroke-linecap: square"/>
     </g>
     <g id="line2d_10">
      <g>
       <use xlink:href="#m62c39a11f9" x="485.168" y="290.72" style="fill: #344551; stroke: #344551; stroke-width: 0.8"/>
      </g>
     </g>
     <g id="text_5">
      <!-- 0.9 -->
      <g style="fill: #344551" transform="translate(477.068 304.2) scale(0.09 -0.09)">
       <defs>
        <path id="DMMono-Regular-39" d="M 1843 -77 
Q 1434 -77 1117 86 
Q 800 250 611 528 
Q 422 806 390 1152 
L 909 1152 
Q 966 813 1212 611 
Q 1459 410 1843 410 
Q 2349 410 2669 867 
Q 2989 1325 3034 2298 
L 2995 2298 
Q 2822 1997 2553 1805 
Q 2285 1613 1798 1613 
Q 1395 1613 1075 1798 
Q 755 1984 566 2310 
Q 378 2637 378 3053 
Q 378 3462 560 3804 
Q 742 4147 1078 4352 
Q 1414 4557 1862 4557 
Q 2707 4557 3123 3981 
Q 3539 3405 3539 2413 
Q 3539 1677 3340 1117 
Q 3142 557 2764 240 
Q 2387 -77 1843 -77 
z
M 1901 2099 
Q 2349 2099 2617 2380 
Q 2886 2662 2886 3085 
Q 2886 3507 2617 3788 
Q 2349 4070 1901 4070 
Q 1453 4070 1187 3788 
Q 922 3507 922 3085 
Q 922 2656 1187 2377 
Q 1453 2099 1901 2099 
z
" transform="scale(0.015625)"/>
       </defs>
       <use xlink:href="#DMMono-Regular-30"/>
       <use xlink:href="#DMMono-Regular-2e" transform="translate(59.999985 0)"/>
       <use xlink:href="#DMMono-Regular-39" transform="translate(119.999969 0)"/>
      </g>
     </g>
    </g>
    <g id="xtick_6">
     <g id="line2d_11">
      <path d="M 572.58 290.72 
L 572.58 45.99125 
" clip-path="url(#p624482d7bb)" style="fill: none; stroke: #344551; stroke-opacity: 0.08; stroke-width: 0.6; stroke-linecap: square"/>
     </g>
     <g id="line2d_12">
      <g>
       <use xlink:href="#m62c39a11f9" x="572.58" y="290.72" style="fill: #344551; stroke: #344551; stroke-width: 0.8"/>
      </g>
     </g>
     <g id="text_6">
      <!-- 1.0 -->
      <g style="fill: #344551" transform="translate(564.48 304.2) scale(0.09 -0.09)">
       <defs>
        <path id="DMMono-Regular-31" d="M 448 0 
L 448 486 
L 1606 486 
L 1606 3846 
L 512 3635 
L 512 4045 
L 1786 4480 
L 2144 4480 
L 2144 486 
L 3366 486 
L 3366 0 
L 448 0 
z
" transform="scale(0.015625)"/>
       </defs>
       <use xlink:href="#DMMono-Regular-31"/>
       <use xlink:href="#DMMono-Regular-2e" transform="translate(59.999985 0)"/>
       <use xlink:href="#DMMono-Regular-30" transform="translate(119.999969 0)"/>
      </g>
     </g>
    </g>
   </g>
   <g id="matplotlib.axis_2">
    <g id="ytick_1">
     <g id="line2d_13">
      <path d="M 135.52 265.934871 
L 572.58 265.934871 
" clip-path="url(#p624482d7bb)" style="fill: none; stroke: #344551; stroke-opacity: 0.08; stroke-width: 0.6; stroke-linecap: square"/>
     </g>
     <g id="line2d_14">
      <defs>
       <path id="ma081f94dc4" d="M 0 0 
L -3.5 0 
" style="stroke: #344551; stroke-width: 0.8"/>
      </defs>
      <g>
       <use xlink:href="#ma081f94dc4" x="135.52" y="265.934871" style="fill: #344551; stroke: #344551; stroke-width: 0.8"/>
      </g>
     </g>
     <g id="text_7">
      <!-- kappa vs contract pass -->
      <g style="fill: #344551" transform="translate(9.72 269.174871) scale(0.09 -0.09)">
       <defs>
        <path id="DMMono-Regular-6b" d="M 710 0 
L 710 4608 
L 1248 4608 
L 1248 1830 
L 2573 3174 
L 3258 3174 
L 1843 1760 
L 1843 1722 
L 3430 0 
L 2765 0 
L 1248 1651 
L 1248 0 
L 710 0 
z
" transform="scale(0.015625)"/>
        <path id="DMMono-Regular-61" d="M 1651 -77 
Q 1274 -77 1024 57 
Q 774 192 652 413 
Q 531 634 531 896 
Q 531 1382 886 1635 
Q 1242 1888 1837 1888 
L 2707 1888 
L 2707 1952 
Q 2707 2784 1946 2784 
Q 1638 2784 1430 2649 
Q 1222 2515 1165 2227 
L 614 2227 
Q 646 2547 828 2777 
Q 1011 3008 1299 3129 
Q 1587 3251 1946 3251 
Q 2624 3251 2934 2896 
Q 3245 2541 3245 1952 
L 3245 0 
L 2784 0 
L 2739 493 
L 2694 493 
Q 2554 262 2320 92 
Q 2086 -77 1651 -77 
z
M 1747 397 
Q 2054 397 2268 544 
Q 2483 691 2595 934 
Q 2707 1178 2707 1466 
L 1882 1466 
Q 1446 1466 1270 1318 
Q 1094 1171 1094 928 
Q 1094 678 1260 537 
Q 1427 397 1747 397 
z
" transform="scale(0.015625)"/>
        <path id="DMMono-Regular-70" d="M 499 -1408 
L 499 3174 
L 934 3174 
L 998 2650 
L 1037 2650 
Q 1158 2906 1427 3078 
Q 1696 3251 2061 3251 
Q 2445 3251 2755 3059 
Q 3066 2867 3245 2492 
Q 3424 2118 3424 1581 
Q 3424 1050 3241 678 
Q 3059 307 2742 115 
Q 2426 -77 2016 -77 
Q 1651 -77 1398 80 
Q 1146 237 1037 448 
L 1037 -1408 
L 499 -1408 
z
M 1952 435 
Q 2355 435 2617 720 
Q 2880 1005 2880 1587 
Q 2880 2170 2617 2454 
Q 2355 2739 1952 2739 
Q 1549 2739 1286 2454 
Q 1024 2170 1024 1587 
Q 1024 1005 1286 720 
Q 1549 435 1952 435 
z
" transform="scale(0.015625)"/>
        <path id="DMMono-Regular-20" transform="scale(0.015625)"/>
        <path id="DMMono-Regular-76" d="M 1606 0 
L 211 3174 
L 826 3174 
L 1920 589 
L 3021 3174 
L 3629 3174 
L 2227 0 
L 1606 0 
z
" transform="scale(0.015625)"/>
        <path id="DMMono-Regular-73" d="M 1952 -77 
Q 1344 -77 969 208 
Q 595 493 550 992 
L 1107 992 
Q 1146 730 1366 563 
Q 1587 397 1965 397 
Q 2323 397 2499 550 
Q 2675 704 2675 902 
Q 2675 1171 2464 1270 
Q 2253 1370 1830 1421 
Q 1325 1478 992 1696 
Q 659 1914 659 2349 
Q 659 2739 985 2995 
Q 1312 3251 1875 3251 
Q 2432 3251 2752 2998 
Q 3072 2746 3117 2278 
L 2586 2278 
Q 2566 2509 2364 2646 
Q 2163 2784 1862 2784 
Q 1549 2784 1376 2665 
Q 1203 2547 1203 2355 
Q 1203 2163 1398 2038 
Q 1594 1914 2016 1875 
Q 2349 1837 2624 1747 
Q 2899 1658 3062 1466 
Q 3226 1274 3226 928 
Q 3232 640 3069 413 
Q 2906 186 2618 54 
Q 2330 -77 1952 -77 
z
" transform="scale(0.015625)"/>
        <path id="DMMono-Regular-63" d="M 1971 -77 
Q 1542 -77 1206 121 
Q 870 320 672 694 
Q 474 1069 474 1587 
Q 474 2106 672 2480 
Q 870 2854 1212 3052 
Q 1555 3251 1971 3251 
Q 2560 3251 2912 2956 
Q 3264 2662 3360 2170 
L 2810 2170 
Q 2733 2432 2515 2589 
Q 2298 2746 1965 2746 
Q 1722 2746 1504 2618 
Q 1286 2490 1152 2234 
Q 1018 1978 1018 1587 
Q 1018 1197 1152 937 
Q 1286 678 1504 550 
Q 1722 422 1965 422 
Q 2317 422 2525 582 
Q 2733 742 2810 1005 
L 3360 1005 
Q 3238 499 2883 211 
Q 2528 -77 1971 -77 
z
" transform="scale(0.015625)"/>
        <path id="DMMono-Regular-6f" d="M 1920 -77 
Q 1472 -77 1126 128 
Q 781 333 582 707 
Q 384 1082 384 1587 
Q 384 2093 582 2467 
Q 781 2842 1126 3046 
Q 1472 3251 1920 3251 
Q 2368 3251 2713 3046 
Q 3059 2842 3257 2467 
Q 3456 2093 3456 1587 
Q 3456 1082 3257 707 
Q 3059 333 2713 128 
Q 2368 -77 1920 -77 
z
M 1920 435 
Q 2195 435 2419 556 
Q 2643 678 2774 934 
Q 2906 1190 2906 1587 
Q 2906 1984 2774 2240 
Q 2643 2496 2419 2617 
Q 2195 2739 1920 2739 
Q 1651 2739 1427 2617 
Q 1203 2496 1068 2240 
Q 934 1984 934 1587 
Q 934 992 1222 713 
Q 1510 435 1920 435 
z
" transform="scale(0.015625)"/>
        <path id="DMMono-Regular-6e" d="M 563 0 
L 563 3174 
L 1011 3174 
L 1069 2694 
L 1101 2694 
Q 1229 2925 1504 3088 
Q 1779 3251 2138 3251 
Q 2720 3251 3011 2905 
Q 3302 2560 3302 1907 
L 3302 0 
L 2765 0 
L 2765 1843 
Q 2765 2266 2579 2506 
Q 2394 2746 2003 2746 
Q 1626 2746 1363 2486 
Q 1101 2227 1101 1741 
L 1101 0 
L 563 0 
z
" transform="scale(0.015625)"/>
        <path id="DMMono-Regular-74" d="M 2253 0 
Q 1818 0 1568 211 
Q 1318 422 1318 973 
L 1318 2714 
L 512 2714 
L 512 3174 
L 992 3174 
Q 1318 3174 1370 3494 
L 1459 3987 
L 1856 3987 
L 1856 3174 
L 3123 3174 
L 3123 2714 
L 1856 2714 
L 1856 973 
Q 1856 704 1981 595 
Q 2106 486 2413 486 
L 3123 486 
L 3123 0 
L 2253 0 
z
" transform="scale(0.015625)"/>
        <path id="DMMono-Regular-72" d="M 538 0 
L 538 461 
L 1350 461 
L 1350 2554 
Q 1350 2714 1197 2714 
L 621 2714 
L 621 3174 
L 1395 3174 
Q 1606 3174 1734 3059 
Q 1862 2944 1862 2720 
L 1862 2586 
L 1888 2586 
Q 1965 2906 2179 3078 
Q 2394 3251 2778 3251 
L 3360 3251 
L 3360 2682 
L 2701 2682 
Q 2310 2682 2099 2422 
Q 1888 2163 1888 1760 
L 1888 461 
L 2886 461 
L 2886 0 
L 538 0 
z
" transform="scale(0.015625)"/>
       </defs>
       <use xlink:href="#DMMono-Regular-6b"/>
       <use xlink:href="#DMMono-Regular-61" transform="translate(59.999985 0)"/>
       <use xlink:href="#DMMono-Regular-70" transform="translate(119.999969 0)"/>
       <use xlink:href="#DMMono-Regular-70" transform="translate(179.999954 0)"/>
       <use xlink:href="#DMMono-Regular-61" transform="translate(239.999939 0)"/>
       <use xlink:href="#DMMono-Regular-20" transform="translate(299.999924 0)"/>
       <use xlink:href="#DMMono-Regular-76" transform="translate(359.999908 0)"/>
       <use xlink:href="#DMMono-Regular-73" transform="translate(419.999893 0)"/>
       <use xlink:href="#DMMono-Regular-20" transform="translate(479.999878 0)"/>
       <use xlink:href="#DMMono-Regular-63" transform="translate(539.999863 0)"/>
       <use xlink:href="#DMMono-Regular-6f" transform="translate(599.999847 0)"/>
       <use xlink:href="#DMMono-Regular-6e" transform="translate(659.999832 0)"/>
       <use xlink:href="#DMMono-Regular-74" transform="translate(719.999817 0)"/>
       <use xlink:href="#DMMono-Regular-72" transform="translate(779.999802 0)"/>
       <use xlink:href="#DMMono-Regular-61" transform="translate(839.999786 0)"/>
       <use xlink:href="#DMMono-Regular-63" transform="translate(899.999771 0)"/>
       <use xlink:href="#DMMono-Regular-74" transform="translate(959.999756 0)"/>
       <use xlink:href="#DMMono-Regular-20" transform="translate(1019.999741 0)"/>
       <use xlink:href="#DMMono-Regular-70" transform="translate(1079.999725 0)"/>
       <use xlink:href="#DMMono-Regular-61" transform="translate(1139.99971 0)"/>
       <use xlink:href="#DMMono-Regular-73" transform="translate(1199.999695 0)"/>
       <use xlink:href="#DMMono-Regular-73" transform="translate(1259.99968 0)"/>
      </g>
     </g>
    </g>
    <g id="ytick_2">
     <g id="line2d_15">
      <path d="M 135.52 217.145248 
L 572.58 217.145248 
" clip-path="url(#p624482d7bb)" style="fill: none; stroke: #344551; stroke-opacity: 0.08; stroke-width: 0.6; stroke-linecap: square"/>
     </g>
     <g id="line2d_16">
      <g>
       <use xlink:href="#ma081f94dc4" x="135.52" y="217.145248" style="fill: #344551; stroke: #344551; stroke-width: 0.8"/>
      </g>
     </g>
     <g id="text_8">
      <!-- kappa vs blind QC -->
      <g style="fill: #344551" transform="translate(36.72 220.385248) scale(0.09 -0.09)">
       <defs>
        <path id="DMMono-Regular-62" d="M 2029 -77 
Q 1664 -77 1411 73 
Q 1158 224 1037 486 
L 998 486 
L 941 0 
L 499 0 
L 499 4608 
L 1037 4608 
L 1037 2720 
Q 1158 2931 1417 3091 
Q 1677 3251 2029 3251 
Q 2438 3251 2752 3059 
Q 3066 2867 3245 2496 
Q 3424 2125 3424 1594 
Q 3424 1056 3245 681 
Q 3066 307 2749 115 
Q 2432 -77 2029 -77 
z
M 1958 435 
Q 2362 435 2621 720 
Q 2880 1005 2880 1587 
Q 2880 2170 2621 2454 
Q 2362 2739 1958 2739 
Q 1555 2739 1292 2454 
Q 1030 2170 1030 1587 
Q 1030 1005 1292 720 
Q 1555 435 1958 435 
z
" transform="scale(0.015625)"/>
        <path id="DMMono-Regular-6c" d="M 480 0 
L 480 461 
L 1562 461 
L 1562 3987 
Q 1562 4147 1402 4147 
L 595 4147 
L 595 4608 
L 1530 4608 
Q 1805 4608 1952 4461 
Q 2099 4314 2099 4038 
L 2099 461 
L 3181 461 
L 3181 0 
L 480 0 
z
" transform="scale(0.015625)"/>
        <path id="DMMono-Regular-69" d="M 1882 3738 
Q 1690 3738 1562 3866 
Q 1434 3994 1434 4173 
Q 1434 4358 1562 4483 
Q 1690 4608 1882 4608 
Q 2067 4608 2198 4483 
Q 2330 4358 2330 4173 
Q 2330 3994 2198 3866 
Q 2067 3738 1882 3738 
z
M 640 0 
L 640 461 
L 1651 461 
L 1651 2554 
Q 1651 2714 1491 2714 
L 749 2714 
L 749 3174 
L 1619 3174 
Q 2189 3174 2189 2605 
L 2189 461 
L 3200 461 
L 3200 0 
L 640 0 
z
" transform="scale(0.015625)"/>
        <path id="DMMono-Regular-64" d="M 1811 -77 
Q 1408 -77 1091 115 
Q 774 307 595 681 
Q 416 1056 416 1594 
Q 416 2125 595 2496 
Q 774 2867 1091 3059 
Q 1408 3251 1811 3251 
Q 2189 3251 2435 3104 
Q 2682 2957 2803 2720 
L 2803 4608 
L 3341 4608 
L 3341 0 
L 2899 0 
L 2842 493 
L 2803 493 
Q 2675 230 2425 76 
Q 2176 -77 1811 -77 
z
M 1882 435 
Q 2285 435 2547 720 
Q 2810 1005 2810 1587 
Q 2810 2170 2547 2454 
Q 2285 2739 1882 2739 
Q 1478 2739 1219 2454 
Q 960 2170 960 1587 
Q 960 1005 1219 720 
Q 1478 435 1882 435 
z
" transform="scale(0.015625)"/>
        <path id="DMMono-Regular-51" d="M 1920 -77 
Q 1376 -77 985 211 
Q 595 499 387 1020 
Q 179 1542 179 2240 
Q 179 2938 387 3459 
Q 595 3981 985 4269 
Q 1376 4557 1920 4557 
Q 2464 4557 2854 4269 
Q 3245 3981 3453 3459 
Q 3661 2938 3661 2240 
Q 3661 1440 3385 873 
Q 3110 307 2618 70 
L 3578 -954 
L 2874 -954 
L 2054 -70 
Q 1984 -77 1920 -77 
z
M 1920 429 
Q 2451 429 2780 902 
Q 3110 1376 3110 2240 
Q 3110 3104 2780 3577 
Q 2451 4051 1920 4051 
Q 1382 4051 1056 3577 
Q 730 3104 730 2240 
Q 730 1376 1056 902 
Q 1382 429 1920 429 
z
" transform="scale(0.015625)"/>
        <path id="DMMono-Regular-43" d="M 1952 -77 
Q 1408 -77 1014 211 
Q 621 499 413 1017 
Q 205 1536 205 2240 
Q 205 2938 413 3459 
Q 621 3981 1014 4269 
Q 1408 4557 1952 4557 
Q 2643 4557 3065 4176 
Q 3488 3795 3558 3162 
L 2963 3162 
Q 2899 3539 2643 3795 
Q 2387 4051 1952 4051 
Q 1395 4051 1075 3568 
Q 755 3085 755 2240 
Q 755 1389 1075 909 
Q 1395 429 1952 429 
Q 2406 429 2652 672 
Q 2899 915 2963 1299 
L 3558 1299 
Q 3456 659 3049 291 
Q 2643 -77 1952 -77 
z
" transform="scale(0.015625)"/>
       </defs>
       <use xlink:href="#DMMono-Regular-6b"/>
       <use xlink:href="#DMMono-Regular-61" transform="translate(59.999985 0)"/>
       <use xlink:href="#DMMono-Regular-70" transform="translate(119.999969 0)"/>
       <use xlink:href="#DMMono-Regular-70" transform="translate(179.999954 0)"/>
       <use xlink:href="#DMMono-Regular-61" transform="translate(239.999939 0)"/>
       <use xlink:href="#DMMono-Regular-20" transform="translate(299.999924 0)"/>
       <use xlink:href="#DMMono-Regular-76" transform="translate(359.999908 0)"/>
       <use xlink:href="#DMMono-Regular-73" transform="translate(419.999893 0)"/>
       <use xlink:href="#DMMono-Regular-20" transform="translate(479.999878 0)"/>
       <use xlink:href="#DMMono-Regular-62" transform="translate(539.999863 0)"/>
       <use xlink:href="#DMMono-Regular-6c" transform="translate(599.999847 0)"/>
       <use xlink:href="#DMMono-Regular-69" transform="translate(659.999832 0)"/>
       <use xlink:href="#DMMono-Regular-6e" transform="translate(719.999817 0)"/>
       <use xlink:href="#DMMono-Regular-64" transform="translate(779.999802 0)"/>
       <use xlink:href="#DMMono-Regular-20" transform="translate(839.999786 0)"/>
       <use xlink:href="#DMMono-Regular-51" transform="translate(899.999771 0)"/>
       <use xlink:href="#DMMono-Regular-43" transform="translate(959.999756 0)"/>
      </g>
     </g>
    </g>
    <g id="ytick_3">
     <g id="line2d_17">
      <path d="M 135.52 168.355625 
L 572.58 168.355625 
" clip-path="url(#p624482d7bb)" style="fill: none; stroke: #344551; stroke-opacity: 0.08; stroke-width: 0.6; stroke-linecap: square"/>
     </g>
     <g id="line2d_18">
      <g>
       <use xlink:href="#ma081f94dc4" x="135.52" y="168.355625" style="fill: #344551; stroke: #344551; stroke-width: 0.8"/>
      </g>
     </g>
     <g id="text_9">
      <!-- protocol QC majority -->
      <g style="fill: #344551" transform="translate(20.52 171.595625) scale(0.09 -0.09)">
       <defs>
        <path id="DMMono-Regular-6d" d="M 237 0 
L 237 3174 
L 678 3174 
L 736 2803 
L 768 2803 
Q 851 2995 1020 3123 
Q 1190 3251 1434 3251 
Q 1677 3251 1846 3132 
Q 2016 3014 2093 2803 
L 2118 2803 
Q 2202 2995 2387 3123 
Q 2573 3251 2835 3251 
Q 3200 3251 3382 3004 
Q 3565 2758 3565 2349 
L 3565 0 
L 3040 0 
L 3040 2266 
Q 3040 2496 2947 2630 
Q 2854 2765 2650 2765 
Q 2438 2765 2304 2605 
Q 2170 2445 2170 2150 
L 2170 0 
L 1638 0 
L 1638 2266 
Q 1638 2496 1548 2630 
Q 1459 2765 1254 2765 
Q 1043 2765 905 2605 
Q 768 2445 768 2150 
L 768 0 
L 237 0 
z
" transform="scale(0.015625)"/>
        <path id="DMMono-Regular-6a" d="M 2048 3738 
Q 1862 3738 1731 3866 
Q 1600 3994 1600 4173 
Q 1600 4358 1731 4483 
Q 1862 4608 2048 4608 
Q 2240 4608 2368 4483 
Q 2496 4358 2496 4173 
Q 2496 3994 2368 3866 
Q 2240 3738 2048 3738 
z
M 390 -1408 
L 390 -947 
L 1658 -947 
Q 1818 -947 1818 -781 
L 1818 2554 
Q 1818 2714 1658 2714 
L 890 2714 
L 890 3174 
L 1786 3174 
Q 2355 3174 2355 2605 
L 2355 -838 
Q 2355 -1408 1786 -1408 
L 390 -1408 
z
" transform="scale(0.015625)"/>
        <path id="DMMono-Regular-79" d="M 954 -1408 
L 1734 307 
L 1549 307 
L 294 3174 
L 877 3174 
L 1920 717 
L 3021 3174 
L 3584 3174 
L 1517 -1408 
L 954 -1408 
z
" transform="scale(0.015625)"/>
       </defs>
       <use xlink:href="#DMMono-Regular-70"/>
       <use xlink:href="#DMMono-Regular-72" transform="translate(59.999985 0)"/>
       <use xlink:href="#DMMono-Regular-6f" transform="translate(119.999969 0)"/>
       <use xlink:href="#DMMono-Regular-74" transform="translate(179.999954 0)"/>
       <use xlink:href="#DMMono-Regular-6f" transform="translate(239.999939 0)"/>
       <use xlink:href="#DMMono-Regular-63" transform="translate(299.999924 0)"/>
       <use xlink:href="#DMMono-Regular-6f" transform="translate(359.999908 0)"/>
       <use xlink:href="#DMMono-Regular-6c" transform="translate(419.999893 0)"/>
       <use xlink:href="#DMMono-Regular-20" transform="translate(479.999878 0)"/>
       <use xlink:href="#DMMono-Regular-51" transform="translate(539.999863 0)"/>
       <use xlink:href="#DMMono-Regular-43" transform="translate(599.999847 0)"/>
       <use xlink:href="#DMMono-Regular-20" transform="translate(659.999832 0)"/>
       <use xlink:href="#DMMono-Regular-6d" transform="translate(719.999817 0)"/>
       <use xlink:href="#DMMono-Regular-61" transform="translate(779.999802 0)"/>
       <use xlink:href="#DMMono-Regular-6a" transform="translate(839.999786 0)"/>
       <use xlink:href="#DMMono-Regular-6f" transform="translate(899.999771 0)"/>
       <use xlink:href="#DMMono-Regular-72" transform="translate(959.999756 0)"/>
       <use xlink:href="#DMMono-Regular-69" transform="translate(1019.999741 0)"/>
       <use xlink:href="#DMMono-Regular-74" transform="translate(1079.999725 0)"/>
       <use xlink:href="#DMMono-Regular-79" transform="translate(1139.99971 0)"/>
      </g>
     </g>
    </g>
    <g id="ytick_4">
     <g id="line2d_19">
      <path d="M 135.52 119.566002 
L 572.58 119.566002 
" clip-path="url(#p624482d7bb)" style="fill: none; stroke: #344551; stroke-opacity: 0.08; stroke-width: 0.6; stroke-linecap: square"/>
     </g>
     <g id="line2d_20">
      <g>
       <use xlink:href="#ma081f94dc4" x="135.52" y="119.566002" style="fill: #344551; stroke: #344551; stroke-width: 0.8"/>
      </g>
     </g>
     <g id="text_10">
      <!-- holdout accuracy -->
      <g style="fill: #344551" transform="translate(42.12 122.806002) scale(0.09 -0.09)">
       <defs>
        <path id="DMMono-Regular-68" d="M 531 0 
L 531 4608 
L 1069 4608 
L 1069 2694 
Q 1197 2938 1491 3094 
Q 1786 3251 2138 3251 
Q 2720 3251 3024 2899 
Q 3328 2547 3328 1914 
L 3328 0 
L 2790 0 
L 2790 1843 
Q 2790 2272 2582 2509 
Q 2374 2746 2003 2746 
Q 1747 2746 1536 2630 
Q 1325 2515 1197 2291 
Q 1069 2067 1069 1741 
L 1069 0 
L 531 0 
z
" transform="scale(0.015625)"/>
        <path id="DMMono-Regular-75" d="M 1696 -77 
Q 1120 -77 825 268 
Q 531 614 531 1267 
L 531 3174 
L 1069 3174 
L 1069 1331 
Q 1069 909 1257 669 
Q 1446 429 1830 429 
Q 2214 429 2476 688 
Q 2739 947 2739 1434 
L 2739 3174 
L 3277 3174 
L 3277 0 
L 2829 0 
L 2771 480 
L 2739 480 
Q 2611 250 2336 86 
Q 2061 -77 1696 -77 
z
" transform="scale(0.015625)"/>
       </defs>
       <use xlink:href="#DMMono-Regular-68"/>
       <use xlink:href="#DMMono-Regular-6f" transform="translate(59.999985 0)"/>
       <use xlink:href="#DMMono-Regular-6c" transform="translate(119.999969 0)"/>
       <use xlink:href="#DMMono-Regular-64" transform="translate(179.999954 0)"/>
       <use xlink:href="#DMMono-Regular-6f" transform="translate(239.999939 0)"/>
       <use xlink:href="#DMMono-Regular-75" transform="translate(299.999924 0)"/>
       <use xlink:href="#DMMono-Regular-74" transform="translate(359.999908 0)"/>
       <use xlink:href="#DMMono-Regular-20" transform="translate(419.999893 0)"/>
       <use xlink:href="#DMMono-Regular-61" transform="translate(479.999878 0)"/>
       <use xlink:href="#DMMono-Regular-63" transform="translate(539.999863 0)"/>
       <use xlink:href="#DMMono-Regular-63" transform="translate(599.999847 0)"/>
       <use xlink:href="#DMMono-Regular-75" transform="translate(659.999832 0)"/>
       <use xlink:href="#DMMono-Regular-72" transform="translate(719.999817 0)"/>
       <use xlink:href="#DMMono-Regular-61" transform="translate(779.999802 0)"/>
       <use xlink:href="#DMMono-Regular-63" transform="translate(839.999786 0)"/>
       <use xlink:href="#DMMono-Regular-79" transform="translate(899.999771 0)"/>
      </g>
     </g>
    </g>
    <g id="ytick_5">
     <g id="line2d_21">
      <path d="M 135.52 70.776379 
L 572.58 70.776379 
" clip-path="url(#p624482d7bb)" style="fill: none; stroke: #344551; stroke-opacity: 0.08; stroke-width: 0.6; stroke-linecap: square"/>
     </g>
     <g id="line2d_22">
      <g>
       <use xlink:href="#ma081f94dc4" x="135.52" y="70.776379" style="fill: #344551; stroke: #344551; stroke-width: 0.8"/>
      </g>
     </g>
     <g id="text_11">
      <!-- full corpus accuracy -->
      <g style="fill: #344551" transform="translate(20.52 74.016379) scale(0.09 -0.09)">
       <defs>
        <path id="DMMono-Regular-66" d="M 589 -1408 
L 589 -915 
L 979 -915 
Q 1222 -915 1324 -819 
Q 1427 -723 1427 -480 
L 1427 2714 
L 640 2714 
L 640 3174 
L 1427 3174 
L 1427 3680 
Q 1427 4173 1664 4390 
Q 1901 4608 2381 4608 
L 3142 4608 
L 3142 4122 
L 2413 4122 
Q 2176 4122 2070 4022 
Q 1965 3923 1965 3680 
L 1965 3174 
L 3142 3174 
L 3142 2714 
L 1965 2714 
L 1965 -480 
Q 1965 -973 1728 -1190 
Q 1491 -1408 1018 -1408 
L 589 -1408 
z
" transform="scale(0.015625)"/>
       </defs>
       <use xlink:href="#DMMono-Regular-66"/>
       <use xlink:href="#DMMono-Regular-75" transform="translate(59.999985 0)"/>
       <use xlink:href="#DMMono-Regular-6c" transform="translate(119.999969 0)"/>
       <use xlink:href="#DMMono-Regular-6c" transform="translate(179.999954 0)"/>
       <use xlink:href="#DMMono-Regular-20" transform="translate(239.999939 0)"/>
       <use xlink:href="#DMMono-Regular-63" transform="translate(299.999924 0)"/>
       <use xlink:href="#DMMono-Regular-6f" transform="translate(359.999908 0)"/>
       <use xlink:href="#DMMono-Regular-72" transform="translate(419.999893 0)"/>
       <use xlink:href="#DMMono-Regular-70" transform="translate(479.999878 0)"/>
       <use xlink:href="#DMMono-Regular-75" transform="translate(539.999863 0)"/>
       <use xlink:href="#DMMono-Regular-73" transform="translate(599.999847 0)"/>
       <use xlink:href="#DMMono-Regular-20" transform="translate(659.999832 0)"/>
       <use xlink:href="#DMMono-Regular-61" transform="translate(719.999817 0)"/>
       <use xlink:href="#DMMono-Regular-63" transform="translate(779.999802 0)"/>
       <use xlink:href="#DMMono-Regular-63" transform="translate(839.999786 0)"/>
       <use xlink:href="#DMMono-Regular-75" transform="translate(899.999771 0)"/>
       <use xlink:href="#DMMono-Regular-72" transform="translate(959.999756 0)"/>
       <use xlink:href="#DMMono-Regular-61" transform="translate(1019.999741 0)"/>
       <use xlink:href="#DMMono-Regular-63" transform="translate(1079.999725 0)"/>
       <use xlink:href="#DMMono-Regular-79" transform="translate(1139.99971 0)"/>
      </g>
     </g>
    </g>
   </g>
   <g id="line2d_23">
    <path d="M 345.3088 290.72 
L 345.3088 45.99125 
" clip-path="url(#p624482d7bb)" style="fill: none; stroke-dasharray: 3.7,1.6; stroke-dashoffset: 0; stroke: #2e8b8b"/>
   </g>
   <g id="line2d_24">
    <path d="M 292.8616 290.72 
L 292.8616 45.99125 
" clip-path="url(#p624482d7bb)" style="fill: none; stroke-dasharray: 1,1.65; stroke-dashoffset: 0; stroke: #2e8b8b"/>
   </g>
   <g id="patch_8">
    <path d="M 135.52 290.72 
L 135.52 45.99125 
" style="fill: none; stroke: #8a95a0; stroke-width: 0.8; stroke-linejoin: miter; stroke-linecap: square"/>
   </g>
   <g id="patch_9">
    <path d="M 135.52 290.72 
L 572.58 290.72 
" style="fill: none; stroke: #8a95a0; stroke-width: 0.8; stroke-linejoin: miter; stroke-linecap: square"/>
   </g>
   <g id="text_12">
    <!-- 0.620 -->
    <g style="fill: #344551" transform="translate(246.9703 267.934871) scale(0.08 -0.08)">
     <defs>
      <path id="DMMono-Regular-32" d="M 474 0 
L 474 422 
Q 1165 973 1680 1433 
Q 2195 1894 2476 2323 
Q 2758 2752 2758 3200 
Q 2758 3603 2531 3836 
Q 2304 4070 1920 4070 
Q 1626 4070 1421 3942 
Q 1216 3814 1113 3603 
Q 1011 3392 1011 3149 
L 480 3149 
Q 486 3590 675 3907 
Q 864 4224 1187 4390 
Q 1510 4557 1920 4557 
Q 2579 4557 2944 4192 
Q 3309 3827 3309 3213 
Q 3309 2810 3136 2442 
Q 2963 2074 2675 1734 
Q 2387 1395 2028 1081 
Q 1670 768 1306 480 
L 3430 480 
L 3430 0 
L 474 0 
z
" transform="scale(0.015625)"/>
     </defs>
     <use xlink:href="#DMMono-Regular-30"/>
     <use xlink:href="#DMMono-Regular-2e" transform="translate(59.999985 0)"/>
     <use xlink:href="#DMMono-Regular-36" transform="translate(119.999969 0)"/>
     <use xlink:href="#DMMono-Regular-32" transform="translate(179.999954 0)"/>
     <use xlink:href="#DMMono-Regular-30" transform="translate(239.999939 0)"/>
    </g>
   </g>
   <g id="text_13">
    <!-- 0.838 -->
    <g style="fill: #344551" transform="translate(438.140344 219.145248) scale(0.08 -0.08)">
     <defs>
      <path id="DMMono-Regular-33" d="M 1978 -77 
Q 1536 -77 1187 86 
Q 838 250 627 563 
Q 416 877 397 1331 
L 947 1331 
Q 960 947 1229 681 
Q 1498 416 1978 416 
Q 2445 416 2701 656 
Q 2957 896 2957 1312 
Q 2957 1600 2809 1789 
Q 2662 1978 2416 2070 
Q 2170 2163 1869 2163 
L 1478 2163 
L 1478 2650 
L 1818 2650 
Q 2253 2650 2512 2835 
Q 2771 3021 2771 3379 
Q 2771 3680 2563 3872 
Q 2355 4064 1971 4064 
Q 1600 4064 1369 3856 
Q 1139 3648 1107 3315 
L 570 3315 
Q 582 3680 761 3958 
Q 941 4237 1251 4397 
Q 1562 4557 1971 4557 
Q 2413 4557 2710 4403 
Q 3008 4250 3161 3990 
Q 3315 3731 3315 3418 
Q 3315 3085 3110 2832 
Q 2906 2579 2624 2477 
L 2624 2438 
Q 3002 2323 3251 2048 
Q 3501 1773 3501 1312 
Q 3501 922 3318 608 
Q 3136 294 2793 108 
Q 2451 -77 1978 -77 
z
" transform="scale(0.015625)"/>
     </defs>
     <use xlink:href="#DMMono-Regular-30"/>
     <use xlink:href="#DMMono-Regular-2e" transform="translate(59.999985 0)"/>
     <use xlink:href="#DMMono-Regular-38" transform="translate(119.999969 0)"/>
     <use xlink:href="#DMMono-Regular-33" transform="translate(179.999954 0)"/>
     <use xlink:href="#DMMono-Regular-38" transform="translate(239.999939 0)"/>
    </g>
   </g>
   <g id="text_14">
    <!-- 0.897 -->
    <g style="fill: #344551" transform="translate(489.97566 170.355625) scale(0.08 -0.08)">
     <use xlink:href="#DMMono-Regular-30"/>
     <use xlink:href="#DMMono-Regular-2e" transform="translate(59.999985 0)"/>
     <use xlink:href="#DMMono-Regular-38" transform="translate(119.999969 0)"/>
     <use xlink:href="#DMMono-Regular-39" transform="translate(179.999954 0)"/>
     <use xlink:href="#DMMono-Regular-37" transform="translate(239.999939 0)"/>
    </g>
   </g>
   <g id="text_15">
    <!-- 0.903 -->
    <g style="fill: #344551" transform="translate(494.608496 121.566002) scale(0.08 -0.08)">
     <use xlink:href="#DMMono-Regular-30"/>
     <use xlink:href="#DMMono-Regular-2e" transform="translate(59.999985 0)"/>
     <use xlink:href="#DMMono-Regular-39" transform="translate(119.999969 0)"/>
     <use xlink:href="#DMMono-Regular-30" transform="translate(179.999954 0)"/>
     <use xlink:href="#DMMono-Regular-33" transform="translate(239.999939 0)"/>
    </g>
   </g>
   <g id="text_16">
    <!-- 0.888 -->
    <g style="fill: #344551" transform="translate(481.584108 72.776379) scale(0.08 -0.08)">
     <use xlink:href="#DMMono-Regular-30"/>
     <use xlink:href="#DMMono-Regular-2e" transform="translate(59.999985 0)"/>
     <use xlink:href="#DMMono-Regular-38" transform="translate(119.999969 0)"/>
     <use xlink:href="#DMMono-Regular-38" transform="translate(179.999954 0)"/>
     <use xlink:href="#DMMono-Regular-38" transform="translate(239.999939 0)"/>
    </g>
   </g>
   <g id="text_17">
    <!-- lit. accuracy 0.74 -->
    <g style="fill: #2e8b8b" transform="translate(346.18292 53.70001) scale(0.07 -0.07)">
     <defs>
      <path id="DMMono-Regular-34" d="M 2470 0 
L 2470 1037 
L 326 1037 
L 326 1453 
L 2368 4480 
L 3008 4480 
L 3008 1523 
L 3648 1523 
L 3648 1037 
L 3008 1037 
L 3008 0 
L 2470 0 
z
M 928 1523 
L 2496 1523 
L 2496 3853 
L 928 1523 
z
" transform="scale(0.015625)"/>
     </defs>
     <use xlink:href="#DMMono-Regular-6c"/>
     <use xlink:href="#DMMono-Regular-69" transform="translate(59.999985 0)"/>
     <use xlink:href="#DMMono-Regular-74" transform="translate(119.999969 0)"/>
     <use xlink:href="#DMMono-Regular-2e" transform="translate(179.999954 0)"/>
     <use xlink:href="#DMMono-Regular-20" transform="translate(239.999939 0)"/>
     <use xlink:href="#DMMono-Regular-61" transform="translate(299.999924 0)"/>
     <use xlink:href="#DMMono-Regular-63" transform="translate(359.999908 0)"/>
     <use xlink:href="#DMMono-Regular-63" transform="translate(419.999893 0)"/>
     <use xlink:href="#DMMono-Regular-75" transform="translate(479.999878 0)"/>
     <use xlink:href="#DMMono-Regular-72" transform="translate(539.999863 0)"/>
     <use xlink:href="#DMMono-Regular-61" transform="translate(599.999847 0)"/>
     <use xlink:href="#DMMono-Regular-63" transform="translate(659.999832 0)"/>
     <use xlink:href="#DMMono-Regular-79" transform="translate(719.999817 0)"/>
     <use xlink:href="#DMMono-Regular-20" transform="translate(779.999802 0)"/>
     <use xlink:href="#DMMono-Regular-30" transform="translate(839.999786 0)"/>
     <use xlink:href="#DMMono-Regular-2e" transform="translate(899.999771 0)"/>
     <use xlink:href="#DMMono-Regular-37" transform="translate(959.999756 0)"/>
     <use xlink:href="#DMMono-Regular-34" transform="translate(1019.999741 0)"/>
    </g>
   </g>
   <g id="text_18">
    <!-- lit. kappa 0.68 -->
    <g style="fill: #2e8b8b" transform="translate(293.73572 292.769164) scale(0.07 -0.07)">
     <use xlink:href="#DMMono-Regular-6c"/>
     <use xlink:href="#DMMono-Regular-69" transform="translate(59.999985 0)"/>
     <use xlink:href="#DMMono-Regular-74" transform="translate(119.999969 0)"/>
     <use xlink:href="#DMMono-Regular-2e" transform="translate(179.999954 0)"/>
     <use xlink:href="#DMMono-Regular-20" transform="translate(239.999939 0)"/>
     <use xlink:href="#DMMono-Regular-6b" transform="translate(299.999924 0)"/>
     <use xlink:href="#DMMono-Regular-61" transform="translate(359.999908 0)"/>
     <use xlink:href="#DMMono-Regular-70" transform="translate(419.999893 0)"/>
     <use xlink:href="#DMMono-Regular-70" transform="translate(479.999878 0)"/>
     <use xlink:href="#DMMono-Regular-61" transform="translate(539.999863 0)"/>
     <use xlink:href="#DMMono-Regular-20" transform="translate(599.999847 0)"/>
     <use xlink:href="#DMMono-Regular-30" transform="translate(659.999832 0)"/>
     <use xlink:href="#DMMono-Regular-2e" transform="translate(719.999817 0)"/>
     <use xlink:href="#DMMono-Regular-36" transform="translate(779.999802 0)"/>
     <use xlink:href="#DMMono-Regular-38" transform="translate(839.999786 0)"/>
    </g>
   </g>
   <g id="text_19">
    <!-- every number recomputable from the frozen queue · rust = agreement statistics (kappa) -->
    <g style="fill: #8a95a0" transform="translate(135.52 42.320319) scale(0.075 -0.075)">
     <defs>
      <path id="DMMono-Regular-65" d="M 1952 -77 
Q 1504 -77 1161 131 
Q 819 339 620 713 
Q 422 1088 422 1587 
Q 422 2086 617 2460 
Q 813 2835 1158 3043 
Q 1504 3251 1965 3251 
Q 2426 3251 2752 3043 
Q 3078 2835 3251 2496 
Q 3424 2157 3424 1766 
Q 3424 1696 3421 1625 
Q 3418 1555 3418 1466 
L 954 1466 
Q 973 1114 1117 880 
Q 1261 646 1481 531 
Q 1702 416 1952 416 
Q 2304 416 2502 563 
Q 2701 710 2803 973 
L 3334 973 
Q 3226 531 2880 227 
Q 2534 -77 1952 -77 
z
M 1952 2771 
Q 1581 2771 1302 2547 
Q 1024 2323 960 1920 
L 2893 1920 
Q 2867 2317 2608 2544 
Q 2349 2771 1952 2771 
z
" transform="scale(0.015625)"/>
      <path id="DMMono-Regular-7a" d="M 653 0 
L 653 493 
L 2522 2675 
L 685 2675 
L 685 3174 
L 3155 3174 
L 3155 2682 
L 1280 499 
L 3187 499 
L 3187 0 
L 653 0 
z
" transform="scale(0.015625)"/>
      <path id="DMMono-Regular-71" d="M 2822 -1408 
L 2822 474 
Q 2701 243 2467 83 
Q 2234 -77 1837 -77 
Q 1434 -77 1117 115 
Q 800 307 617 678 
Q 435 1050 435 1581 
Q 435 2118 617 2492 
Q 800 2867 1110 3059 
Q 1421 3251 1805 3251 
Q 2182 3251 2438 3091 
Q 2694 2931 2822 2688 
L 2861 2688 
L 2925 3174 
L 3360 3174 
L 3360 -1408 
L 2822 -1408 
z
M 1907 435 
Q 2310 435 2572 720 
Q 2835 1005 2835 1587 
Q 2835 2170 2572 2454 
Q 2310 2739 1907 2739 
Q 1504 2739 1241 2454 
Q 979 2170 979 1587 
Q 979 1005 1241 720 
Q 1504 435 1907 435 
z
" transform="scale(0.015625)"/>
      <path id="DMMono-Regular-b7" d="M 1920 1779 
Q 1722 1779 1581 1913 
Q 1440 2048 1440 2246 
Q 1440 2438 1581 2572 
Q 1722 2707 1920 2707 
Q 2118 2707 2259 2572 
Q 2400 2438 2400 2246 
Q 2400 2048 2259 1913 
Q 2118 1779 1920 1779 
z
" transform="scale(0.015625)"/>
      <path id="DMMono-Regular-3d" d="M 480 2784 
L 480 3270 
L 3360 3270 
L 3360 2784 
L 480 2784 
z
M 480 1210 
L 480 1696 
L 3360 1696 
L 3360 1210 
L 480 1210 
z
" transform="scale(0.015625)"/>
      <path id="DMMono-Regular-67" d="M 1862 934 
Q 1530 934 1267 1056 
L 1050 794 
Q 979 698 1014 605 
Q 1050 512 1197 512 
L 2035 512 
Q 2605 512 2957 291 
Q 3309 70 3309 -410 
Q 3309 -698 3161 -941 
Q 3014 -1184 2697 -1334 
Q 2381 -1485 1869 -1485 
Q 1203 -1485 800 -1235 
Q 397 -986 397 -474 
Q 397 -288 489 -131 
Q 582 26 723 147 
Q 538 262 496 492 
Q 454 723 634 947 
L 922 1306 
Q 614 1626 614 2093 
Q 614 2400 761 2665 
Q 909 2931 1187 3091 
Q 1466 3251 1862 3251 
Q 2118 3251 2336 3174 
L 3526 3174 
L 3526 2771 
L 2931 2752 
L 2931 2707 
Q 3098 2432 3098 2093 
Q 3098 1786 2954 1520 
Q 2810 1254 2531 1094 
Q 2253 934 1862 934 
z
M 1862 1395 
Q 2176 1395 2377 1580 
Q 2579 1766 2579 2093 
Q 2579 2419 2377 2601 
Q 2176 2784 1862 2784 
Q 1542 2784 1337 2601 
Q 1133 2419 1133 2093 
Q 1133 1766 1337 1580 
Q 1542 1395 1862 1395 
z
M 928 -454 
Q 928 -736 1190 -877 
Q 1453 -1018 1869 -1018 
Q 2272 -1018 2525 -858 
Q 2778 -698 2778 -429 
Q 2778 -218 2598 -74 
Q 2419 70 1939 70 
L 1216 70 
Q 928 -141 928 -454 
z
" transform="scale(0.015625)"/>
      <path id="DMMono-Regular-28" d="M 2227 -1184 
Q 1894 -813 1609 -355 
Q 1325 102 1152 681 
Q 979 1261 979 2003 
Q 979 2746 1152 3325 
Q 1325 3904 1609 4361 
Q 1894 4819 2227 5190 
L 2797 5190 
L 2797 5133 
Q 2413 4717 2125 4246 
Q 1837 3776 1677 3225 
Q 1517 2675 1517 2003 
Q 1517 1331 1677 780 
Q 1837 230 2125 -240 
Q 2413 -710 2797 -1126 
L 2797 -1184 
L 2227 -1184 
z
" transform="scale(0.015625)"/>
      <path id="DMMono-Regular-29" d="M 1043 -1184 
L 1043 -1126 
Q 1427 -710 1715 -240 
Q 2003 230 2163 780 
Q 2323 1331 2323 2003 
Q 2323 2675 2163 3225 
Q 2003 3776 1715 4246 
Q 1427 4717 1043 5133 
L 1043 5190 
L 1613 5190 
Q 1946 4819 2230 4361 
Q 2515 3904 2688 3325 
Q 2861 2746 2861 2003 
Q 2861 1261 2688 681 
Q 2515 102 2230 -355 
Q 1946 -813 1613 -1184 
L 1043 -1184 
z
" transform="scale(0.015625)"/>
     </defs>
     <use xlink:href="#DMMono-Regular-65"/>
     <use xlink:href="#DMMono-Regular-76" transform="translate(59.999985 0)"/>
     <use xlink:href="#DMMono-Regular-65" transform="translate(119.999969 0)"/>
     <use xlink:href="#DMMono-Regular-72" transform="translate(179.999954 0)"/>
     <use xlink:href="#DMMono-Regular-79" transform="translate(239.999939 0)"/>
     <use xlink:href="#DMMono-Regular-20" transform="translate(299.999924 0)"/>
     <use xlink:href="#DMMono-Regular-6e" transform="translate(359.999908 0)"/>
     <use xlink:href="#DMMono-Regular-75" transform="translate(419.999893 0)"/>
     <use xlink:href="#DMMono-Regular-6d" transform="translate(479.999878 0)"/>
     <use xlink:href="#DMMono-Regular-62" transform="translate(539.999863 0)"/>
     <use xlink:href="#DMMono-Regular-65" transform="translate(599.999847 0)"/>
     <use xlink:href="#DMMono-Regular-72" transform="translate(659.999832 0)"/>
     <use xlink:href="#DMMono-Regular-20" transform="translate(719.999817 0)"/>
     <use xlink:href="#DMMono-Regular-72" transform="translate(779.999802 0)"/>
     <use xlink:href="#DMMono-Regular-65" transform="translate(839.999786 0)"/>
     <use xlink:href="#DMMono-Regular-63" transform="translate(899.999771 0)"/>
     <use xlink:href="#DMMono-Regular-6f" transform="translate(959.999756 0)"/>
     <use xlink:href="#DMMono-Regular-6d" transform="translate(1019.999741 0)"/>
     <use xlink:href="#DMMono-Regular-70" transform="translate(1079.999725 0)"/>
     <use xlink:href="#DMMono-Regular-75" transform="translate(1139.99971 0)"/>
     <use xlink:href="#DMMono-Regular-74" transform="translate(1199.999695 0)"/>
     <use xlink:href="#DMMono-Regular-61" transform="translate(1259.99968 0)"/>
     <use xlink:href="#DMMono-Regular-62" transform="translate(1319.999664 0)"/>
     <use xlink:href="#DMMono-Regular-6c" transform="translate(1379.999649 0)"/>
     <use xlink:href="#DMMono-Regular-65" transform="translate(1439.999634 0)"/>
     <use xlink:href="#DMMono-Regular-20" transform="translate(1499.999619 0)"/>
     <use xlink:href="#DMMono-Regular-66" transform="translate(1559.999603 0)"/>
     <use xlink:href="#DMMono-Regular-72" transform="translate(1619.999588 0)"/>
     <use xlink:href="#DMMono-Regular-6f" transform="translate(1679.999573 0)"/>
     <use xlink:href="#DMMono-Regular-6d" transform="translate(1739.999557 0)"/>
     <use xlink:href="#DMMono-Regular-20" transform="translate(1799.999542 0)"/>
     <use xlink:href="#DMMono-Regular-74" transform="translate(1859.999527 0)"/>
     <use xlink:href="#DMMono-Regular-68" transform="translate(1919.999512 0)"/>
     <use xlink:href="#DMMono-Regular-65" transform="translate(1979.999496 0)"/>
     <use xlink:href="#DMMono-Regular-20" transform="translate(2039.999481 0)"/>
     <use xlink:href="#DMMono-Regular-66" transform="translate(2099.999466 0)"/>
     <use xlink:href="#DMMono-Regular-72" transform="translate(2159.999451 0)"/>
     <use xlink:href="#DMMono-Regular-6f" transform="translate(2219.999435 0)"/>
     <use xlink:href="#DMMono-Regular-7a" transform="translate(2279.99942 0)"/>
     <use xlink:href="#DMMono-Regular-65" transform="translate(2339.999405 0)"/>
     <use xlink:href="#DMMono-Regular-6e" transform="translate(2399.99939 0)"/>
     <use xlink:href="#DMMono-Regular-20" transform="translate(2459.999374 0)"/>
     <use xlink:href="#DMMono-Regular-71" transform="translate(2519.999359 0)"/>
     <use xlink:href="#DMMono-Regular-75" transform="translate(2579.999344 0)"/>
     <use xlink:href="#DMMono-Regular-65" transform="translate(2639.999329 0)"/>
     <use xlink:href="#DMMono-Regular-75" transform="translate(2699.999313 0)"/>
     <use xlink:href="#DMMono-Regular-65" transform="translate(2759.999298 0)"/>
     <use xlink:href="#DMMono-Regular-20" transform="translate(2819.999283 0)"/>
     <use xlink:href="#DMMono-Regular-b7" transform="translate(2879.999268 0)"/>
     <use xlink:href="#DMMono-Regular-20" transform="translate(2939.999252 0)"/>
     <use xlink:href="#DMMono-Regular-72" transform="translate(2999.999237 0)"/>
     <use xlink:href="#DMMono-Regular-75" transform="translate(3059.999222 0)"/>
     <use xlink:href="#DMMono-Regular-73" transform="translate(3119.999207 0)"/>
     <use xlink:href="#DMMono-Regular-74" transform="translate(3179.999191 0)"/>
     <use xlink:href="#DMMono-Regular-20" transform="translate(3239.999176 0)"/>
     <use xlink:href="#DMMono-Regular-3d" transform="translate(3299.999161 0)"/>
     <use xlink:href="#DMMono-Regular-20" transform="translate(3359.999146 0)"/>
     <use xlink:href="#DMMono-Regular-61" transform="translate(3419.99913 0)"/>
     <use xlink:href="#DMMono-Regular-67" transform="translate(3479.999115 0)"/>
     <use xlink:href="#DMMono-Regular-72" transform="translate(3539.9991 0)"/>
     <use xlink:href="#DMMono-Regular-65" transform="translate(3599.999084 0)"/>
     <use xlink:href="#DMMono-Regular-65" transform="translate(3659.999069 0)"/>
     <use xlink:href="#DMMono-Regular-6d" transform="translate(3719.999054 0)"/>
     <use xlink:href="#DMMono-Regular-65" transform="translate(3779.999039 0)"/>
     <use xlink:href="#DMMono-Regular-6e" transform="translate(3839.999023 0)"/>
     <use xlink:href="#DMMono-Regular-74" transform="translate(3899.999008 0)"/>
     <use xlink:href="#DMMono-Regular-20" transform="translate(3959.998993 0)"/>
     <use xlink:href="#DMMono-Regular-73" transform="translate(4019.998978 0)"/>
     <use xlink:href="#DMMono-Regular-74" transform="translate(4079.998962 0)"/>
     <use xlink:href="#DMMono-Regular-61" transform="translate(4139.998947 0)"/>
     <use xlink:href="#DMMono-Regular-74" transform="translate(4199.998932 0)"/>
     <use xlink:href="#DMMono-Regular-69" transform="translate(4259.998917 0)"/>
     <use xlink:href="#DMMono-Regular-73" transform="translate(4319.998901 0)"/>
     <use xlink:href="#DMMono-Regular-74" transform="translate(4379.998886 0)"/>
     <use xlink:href="#DMMono-Regular-69" transform="translate(4439.998871 0)"/>
     <use xlink:href="#DMMono-Regular-63" transform="translate(4499.998856 0)"/>
     <use xlink:href="#DMMono-Regular-73" transform="translate(4559.99884 0)"/>
     <use xlink:href="#DMMono-Regular-20" transform="translate(4619.998825 0)"/>
     <use xlink:href="#DMMono-Regular-28" transform="translate(4679.99881 0)"/>
     <use xlink:href="#DMMono-Regular-6b" transform="translate(4739.998795 0)"/>
     <use xlink:href="#DMMono-Regular-61" transform="translate(4799.998779 0)"/>
     <use xlink:href="#DMMono-Regular-70" transform="translate(4859.998764 0)"/>
     <use xlink:href="#DMMono-Regular-70" transform="translate(4919.998749 0)"/>
     <use xlink:href="#DMMono-Regular-61" transform="translate(4979.998734 0)"/>
     <use xlink:href="#DMMono-Regular-29" transform="translate(5039.998718 0)"/>
    </g>
   </g>
   <g id="text_20">
    <!-- The reviewer, audited -->
    <g style="fill: #344551" transform="translate(135.52 19.99125) scale(0.15 -0.15)">
     <defs>
      <path id="CrimsonPro-Regular-54" d="M 3238 3694 
L 3375 2681 
L 3100 2650 
L 2838 3356 
Q 2788 3369 2722 3372 
Q 2656 3375 2606 3375 
L 2381 3375 
Q 2319 3375 2212 3375 
Q 2106 3375 2019 3369 
Q 2019 3319 2016 3134 
Q 2013 2950 2013 2706 
Q 2013 2463 2013 2238 
L 2013 1394 
Q 2013 994 2019 703 
Q 2025 413 2025 325 
L 2556 250 
L 2538 0 
L 944 0 
L 931 250 
L 1456 325 
Q 1456 413 1462 703 
Q 1469 994 1469 1394 
L 1469 2238 
Q 1469 2463 1469 2706 
Q 1469 2950 1469 3134 
Q 1469 3319 1463 3369 
Q 1381 3375 1278 3375 
Q 1175 3375 1106 3375 
L 863 3375 
Q 813 3375 750 3372 
Q 688 3369 638 3356 
L 381 2644 
L 100 2681 
L 238 3694 
Q 313 3688 388 3684 
Q 463 3681 538 3678 
Q 613 3675 691 3672 
Q 769 3669 844 3669 
L 2631 3669 
Q 2706 3669 2781 3672 
Q 2856 3675 2931 3678 
Q 3006 3681 3084 3684 
Q 3163 3688 3238 3694 
z
" transform="scale(0.015625)"/>
      <path id="CrimsonPro-Regular-68" d="M 194 0 
L 181 225 
L 569 319 
Q 581 388 587 528 
Q 594 669 597 906 
Q 600 1144 600 1488 
L 600 2269 
Q 600 2481 597 2725 
Q 594 2969 591 3197 
Q 588 3425 584 3594 
Q 581 3763 575 3819 
L 113 3881 
L 100 4081 
L 981 4338 
L 1100 4250 
Q 1094 4056 1087 3862 
Q 1081 3669 1078 3447 
Q 1075 3225 1072 2944 
Q 1069 2663 1069 2294 
L 1088 2288 
Q 1306 2525 1515 2631 
Q 1725 2738 1975 2738 
Q 2206 2738 2409 2619 
Q 2613 2500 2741 2259 
Q 2869 2019 2869 1644 
L 2869 969 
Q 2869 744 2881 566 
Q 2894 388 2906 319 
L 3294 225 
L 3281 0 
L 2025 0 
L 2006 225 
L 2369 319 
Q 2375 369 2381 444 
Q 2388 519 2391 634 
Q 2394 750 2394 925 
L 2394 1600 
Q 2394 1869 2303 2034 
Q 2213 2200 2069 2278 
Q 1925 2356 1763 2356 
Q 1563 2356 1381 2253 
Q 1200 2150 1075 1969 
L 1075 1031 
Q 1075 744 1084 556 
Q 1094 369 1106 319 
L 1488 225 
L 1475 0 
L 194 0 
z
" transform="scale(0.015625)"/>
      <path id="CrimsonPro-Regular-65" d="M 1550 -50 
Q 1188 -50 897 112 
Q 606 275 434 578 
Q 263 881 263 1294 
Q 263 1738 444 2063 
Q 625 2388 919 2566 
Q 1213 2744 1550 2738 
Q 2038 2731 2313 2412 
Q 2588 2094 2588 1513 
L 2588 1400 
L 669 1400 
L 669 1675 
L 2175 1675 
L 2106 1594 
L 2106 1725 
Q 2106 2088 1943 2281 
Q 1781 2475 1500 2475 
Q 1325 2475 1162 2372 
Q 1000 2269 900 2059 
Q 800 1850 800 1531 
L 800 1456 
Q 800 944 1053 656 
Q 1306 369 1706 369 
Q 1925 369 2100 456 
Q 2275 544 2438 738 
L 2594 594 
Q 2419 269 2150 109 
Q 1881 -50 1550 -50 
z
" transform="scale(0.015625)"/>
      <path id="CrimsonPro-Regular-20" transform="scale(0.015625)"/>
      <path id="CrimsonPro-Regular-72" d="M 206 0 
L 188 225 
L 575 319 
Q 581 350 587 431 
Q 594 513 597 650 
Q 600 788 600 988 
L 606 1475 
Q 606 1681 590 1881 
Q 575 2081 556 2200 
L 156 2288 
L 156 2494 
L 994 2725 
L 1081 2638 
L 1056 2113 
L 1075 2106 
Q 1263 2469 1456 2597 
Q 1650 2725 1819 2725 
Q 1963 2725 2059 2653 
Q 2156 2581 2156 2438 
Q 2156 2288 2053 2209 
Q 1950 2131 1794 2131 
Q 1681 2131 1578 2181 
Q 1475 2231 1381 2319 
L 1494 2281 
Q 1375 2206 1269 2072 
Q 1163 1938 1075 1738 
L 1081 1156 
Q 1088 1000 1094 831 
Q 1100 663 1106 528 
Q 1113 394 1119 319 
L 1663 238 
L 1650 0 
L 206 0 
z
" transform="scale(0.015625)"/>
      <path id="CrimsonPro-Regular-76" d="M 1375 -25 
L 269 2369 
L -25 2463 
L -13 2688 
L 1206 2688 
L 1219 2463 
L 831 2369 
L 1688 469 
L 1525 463 
L 2313 2369 
L 1925 2463 
L 1938 2688 
L 2975 2688 
L 2988 2463 
L 2694 2369 
L 1563 -25 
L 1375 -25 
z
" transform="scale(0.015625)"/>
      <path id="CrimsonPro-Regular-69" d="M 169 0 
L 156 231 
L 575 319 
Q 581 344 584 406 
Q 588 469 594 606 
Q 600 744 600 988 
L 600 1400 
Q 600 1656 587 1868 
Q 575 2081 556 2200 
L 138 2288 
L 138 2494 
L 1025 2725 
L 1119 2638 
Q 1100 2444 1090 2256 
Q 1081 2069 1081 1819 
L 1081 1031 
Q 1081 744 1090 556 
Q 1100 369 1113 319 
L 1531 231 
L 1519 0 
L 169 0 
z
M 841 3431 
Q 685 3431 569 3537 
Q 454 3644 454 3800 
Q 454 3956 569 4062 
Q 685 4169 841 4169 
Q 1004 4169 1110 4062 
Q 1216 3956 1216 3800 
Q 1216 3644 1110 3537 
Q 1004 3431 841 3431 
z
" transform="scale(0.015625)"/>
      <path id="CrimsonPro-Regular-77" d="M 3150 -25 
L 2194 2369 
L 1875 2463 
L 1888 2688 
L 3038 2688 
L 3050 2463 
L 2725 2369 
L 3450 469 
L 3294 463 
L 4038 2369 
L 3713 2463 
L 3725 2688 
L 4694 2688 
L 4706 2463 
L 4413 2369 
L 3344 -25 
L 3150 -25 
z
M 1331 -25 
L 319 2369 
L 25 2463 
L 38 2688 
L 1194 2688 
L 1206 2463 
L 888 2369 
L 1663 469 
L 1475 463 
L 2300 2425 
L 2469 2038 
L 1525 -25 
L 1331 -25 
z
" transform="scale(0.015625)"/>
      <path id="CrimsonPro-Regular-2c" d="M 269 -1100 
L 175 -919 
Q 425 -806 559 -647 
Q 694 -488 694 -275 
Q 694 -181 659 -118 
Q 625 -56 575 -9 
Q 525 38 475 84 
Q 425 131 390 197 
Q 356 263 356 363 
Q 356 494 459 597 
Q 563 700 725 700 
Q 838 700 934 637 
Q 1031 575 1090 450 
Q 1150 325 1150 131 
Q 1150 -119 1040 -362 
Q 931 -606 731 -800 
Q 531 -994 269 -1100 
z
" transform="scale(0.015625)"/>
      <path id="CrimsonPro-Regular-61" d="M 1225 -50 
Q 975 -50 781 50 
Q 588 150 478 306 
Q 369 463 369 631 
Q 369 844 506 981 
Q 644 1119 956 1219 
L 1906 1538 
L 1906 1856 
Q 1906 2013 1812 2141 
Q 1719 2269 1562 2344 
Q 1406 2419 1213 2419 
Q 1056 2419 1000 2353 
Q 944 2288 931 2094 
L 919 1831 
Q 694 1781 537 1847 
Q 381 1913 381 2063 
Q 381 2169 472 2275 
Q 563 2381 713 2478 
Q 863 2575 1038 2644 
Q 1213 2713 1381 2738 
Q 1844 2738 2122 2494 
Q 2400 2250 2406 1856 
L 2394 806 
Q 2394 688 2403 575 
Q 2413 463 2431 406 
L 2831 331 
L 2831 138 
L 2525 25 
Q 2438 -6 2363 -28 
Q 2288 -50 2238 -50 
Q 2044 -50 1988 169 
L 1919 413 
L 2013 413 
Q 1806 181 1615 65 
Q 1425 -50 1225 -50 
z
M 1394 319 
Q 1538 319 1663 384 
Q 1788 450 1906 588 
L 1906 1244 
L 1206 1056 
Q 1056 1019 990 937 
Q 925 856 925 731 
Q 925 575 1065 447 
Q 1206 319 1394 319 
z
" transform="scale(0.015625)"/>
      <path id="CrimsonPro-Regular-75" d="M 2844 438 
L 3238 338 
L 3238 131 
L 2425 -69 
L 2331 13 
L 2338 406 
L 2319 413 
Q 2138 156 1947 53 
Q 1756 -50 1538 -50 
Q 1119 -50 837 209 
Q 556 469 556 988 
L 556 1525 
Q 556 1700 547 1865 
Q 538 2031 525 2200 
L 100 2288 
L 100 2494 
L 950 2725 
L 1063 2625 
Q 1050 2431 1044 2212 
Q 1038 1994 1038 1756 
L 1031 1069 
Q 1031 681 1212 515 
Q 1394 350 1675 350 
Q 1844 350 2019 437 
Q 2194 525 2325 738 
L 2325 1463 
Q 2325 1600 2322 1734 
Q 2319 1869 2312 1991 
Q 2306 2113 2294 2200 
L 1838 2288 
L 1838 2494 
L 2719 2725 
L 2813 2638 
Q 2806 2463 2803 2325 
Q 2800 2188 2800 2053 
Q 2800 1919 2800 1750 
L 2800 1306 
Q 2800 963 2815 753 
Q 2831 544 2844 438 
z
" transform="scale(0.015625)"/>
      <path id="CrimsonPro-Regular-64" d="M 2394 -69 
L 2300 13 
L 2306 419 
L 2288 425 
Q 2100 163 1903 56 
Q 1706 -50 1488 -50 
Q 1131 -50 853 115 
Q 575 281 412 575 
Q 250 869 250 1250 
Q 250 1581 362 1856 
Q 475 2131 672 2328 
Q 869 2525 1119 2631 
Q 1369 2738 1638 2738 
Q 1813 2738 1994 2694 
Q 2175 2650 2300 2556 
Q 2300 2669 2297 2850 
Q 2294 3031 2291 3228 
Q 2288 3425 2284 3578 
Q 2281 3731 2275 3788 
L 1788 3875 
L 1775 4081 
L 2694 4338 
L 2806 4250 
Q 2794 3863 2787 3500 
Q 2781 3138 2781 2744 
L 2775 1306 
Q 2775 988 2790 759 
Q 2806 531 2813 438 
L 3213 338 
L 3213 131 
L 2394 -69 
z
M 1644 369 
Q 1825 369 1981 447 
Q 2138 525 2300 725 
L 2300 2069 
Q 2181 2281 2000 2368 
Q 1819 2456 1638 2456 
Q 1244 2456 1022 2165 
Q 800 1875 800 1413 
Q 800 919 1047 644 
Q 1294 369 1644 369 
z
" transform="scale(0.015625)"/>
      <path id="CrimsonPro-Regular-74" d="M 2156 388 
Q 2038 181 1831 65 
Q 1625 -50 1400 -50 
Q 1019 -50 775 181 
Q 531 413 531 875 
L 550 2369 
L 113 2369 
L 113 2500 
L 919 3231 
L 1038 3231 
L 1025 2513 
L 1019 975 
Q 1019 650 1159 494 
Q 1300 338 1556 338 
Q 1700 338 1822 394 
Q 1944 450 2044 544 
L 2156 388 
z
M 800 2369 
L 800 2681 
L 1969 2681 
L 1969 2369 
L 800 2369 
z
" transform="scale(0.015625)"/>
     </defs>
     <use xlink:href="#CrimsonPro-Regular-54"/>
     <use xlink:href="#CrimsonPro-Regular-68" transform="translate(54.394531 0)"/>
     <use xlink:href="#CrimsonPro-Regular-65" transform="translate(108.105469 0)"/>
     <use xlink:href="#CrimsonPro-Regular-20" transform="translate(152.050781 0)"/>
     <use xlink:href="#CrimsonPro-Regular-72" transform="translate(170.800781 0)"/>
     <use xlink:href="#CrimsonPro-Regular-65" transform="translate(206.347656 0)"/>
     <use xlink:href="#CrimsonPro-Regular-76" transform="translate(250.292969 0)"/>
     <use xlink:href="#CrimsonPro-Regular-69" transform="translate(296.386719 0)"/>
     <use xlink:href="#CrimsonPro-Regular-65" transform="translate(322.558594 0)"/>
     <use xlink:href="#CrimsonPro-Regular-77" transform="translate(366.503906 0)"/>
     <use xlink:href="#CrimsonPro-Regular-65" transform="translate(440.039062 0)"/>
     <use xlink:href="#CrimsonPro-Regular-72" transform="translate(483.984375 0)"/>
     <use xlink:href="#CrimsonPro-Regular-2c" transform="translate(519.53125 0)"/>
     <use xlink:href="#CrimsonPro-Regular-20" transform="translate(542.382812 0)"/>
     <use xlink:href="#CrimsonPro-Regular-61" transform="translate(561.132812 0)"/>
     <use xlink:href="#CrimsonPro-Regular-75" transform="translate(607.421875 0)"/>
     <use xlink:href="#CrimsonPro-Regular-64" transform="translate(660.449219 0)"/>
     <use xlink:href="#CrimsonPro-Regular-69" transform="translate(713.085938 0)"/>
     <use xlink:href="#CrimsonPro-Regular-74" transform="translate(739.257812 0)"/>
     <use xlink:href="#CrimsonPro-Regular-65" transform="translate(772.363281 0)"/>
     <use xlink:href="#CrimsonPro-Regular-64" transform="translate(816.308594 0)"/>
    </g>
   </g>
  </g>
 </g>
 <defs>
  <clipPath id="p624482d7bb">
   <rect x="135.52" y="45.99125" width="437.06" height="244.72875"/>
  </clipPath>
 </defs>
</svg>
