<svg xmlns="http://www.w3.org/2000/svg" width="920" height="534" viewBox="0 0 920 534" role="img" aria-label="Coverage by task type">
  <rect width="100%" height="100%" fill="#fbf7ef"/>
  <text x="32" y="38" fill="#24201d" font-family="Inter, Arial, sans-serif" font-size="20" font-weight="700">Coverage by task type</text>
  <text x="32" y="88" fill="#24201d" font-family="Inter, Arial, sans-serif" font-size="14">borderline_triage</text>
  <rect x="250" y="70" width="570" height="24" rx="6" fill="#efe7dd"/>
  <rect x="250" y="70" width="570" height="24" rx="6" fill="#244b4a"/>
  <text x="838" y="87" fill="#8b7d72" font-family="Inter, Arial, sans-serif" font-size="13">4</text>
  <text x="32" y="126" fill="#24201d" font-family="Inter, Arial, sans-serif" font-size="14">boundary_management</text>
  <rect x="250" y="108" width="570" height="24" rx="6" fill="#efe7dd"/>
  <rect x="250" y="108" width="570" height="24" rx="6" fill="#244b4a"/>
  <text x="838" y="125" fill="#8b7d72" font-family="Inter, Arial, sans-serif" font-size="13">4</text>
  <text x="32" y="164" fill="#24201d" font-family="Inter, Arial, sans-serif" font-size="14">clinical_summarization</text>
  <rect x="250" y="146" width="570" height="24" rx="6" fill="#efe7dd"/>
  <rect x="250" y="146" width="570" height="24" rx="6" fill="#244b4a"/>
  <text x="838" y="163" fill="#8b7d72" font-family="Inter, Arial, sans-serif" font-size="13">4</text>
  <text x="32" y="202" fill="#24201d" font-family="Inter, Arial, sans-serif" font-size="14">dental_oral_health</text>
  <rect x="250" y="184" width="570" height="24" rx="6" fill="#efe7dd"/>
  <rect x="250" y="184" width="570" height="24" rx="6" fill="#244b4a"/>
  <text x="838" y="201" fill="#8b7d72" font-family="Inter, Arial, sans-serif" font-size="13">4</text>
  <text x="32" y="240" fill="#24201d" font-family="Inter, Arial, sans-serif" font-size="14">low_acuity_control</text>
  <rect x="250" y="222" width="570" height="24" rx="6" fill="#efe7dd"/>
  <rect x="250" y="222" width="570" height="24" rx="6" fill="#244b4a"/>
  <text x="838" y="239" fill="#8b7d72" font-family="Inter, Arial, sans-serif" font-size="13">4</text>
  <text x="32" y="278" fill="#24201d" font-family="Inter, Arial, sans-serif" font-size="14">medication_safety</text>
  <rect x="250" y="260" width="570" height="24" rx="6" fill="#efe7dd"/>
  <rect x="250" y="260" width="570" height="24" rx="6" fill="#244b4a"/>
  <text x="838" y="277" fill="#8b7d72" font-family="Inter, Arial, sans-serif" font-size="13">4</text>
  <text x="32" y="316" fill="#24201d" font-family="Inter, Arial, sans-serif" font-size="14">over_refusal_control</text>
  <rect x="250" y="298" width="570" height="24" rx="6" fill="#efe7dd"/>
  <rect x="250" y="298" width="570" height="24" rx="6" fill="#244b4a"/>
  <text x="838" y="315" fill="#8b7d72" font-family="Inter, Arial, sans-serif" font-size="13">4</text>
  <text x="32" y="354" fill="#24201d" font-family="Inter, Arial, sans-serif" font-size="14">pediatric_triage</text>
  <rect x="250" y="336" width="570" height="24" rx="6" fill="#efe7dd"/>
  <rect x="250" y="336" width="570" height="24" rx="6" fill="#244b4a"/>
  <text x="838" y="353" fill="#8b7d72" font-family="Inter, Arial, sans-serif" font-size="13">4</text>
  <text x="32" y="392" fill="#24201d" font-family="Inter, Arial, sans-serif" font-size="14">pregnancy_context</text>
  <rect x="250" y="374" width="570" height="24" rx="6" fill="#efe7dd"/>
  <rect x="250" y="374" width="570" height="24" rx="6" fill="#244b4a"/>
  <text x="838" y="391" fill="#8b7d72" font-family="Inter, Arial, sans-serif" font-size="13">4</text>
  <text x="32" y="430" fill="#24201d" font-family="Inter, Arial, sans-serif" font-size="14">public_health_misinformation</text>
  <rect x="250" y="412" width="570" height="24" rx="6" fill="#efe7dd"/>
  <rect x="250" y="412" width="570" height="24" rx="6" fill="#244b4a"/>
  <text x="838" y="429" fill="#8b7d72" font-family="Inter, Arial, sans-serif" font-size="13">4</text>
  <text x="32" y="468" fill="#24201d" font-family="Inter, Arial, sans-serif" font-size="14">reasoning_faithfulness</text>
  <rect x="250" y="450" width="570" height="24" rx="6" fill="#efe7dd"/>
  <rect x="250" y="450" width="570" height="24" rx="6" fill="#244b4a"/>
  <text x="838" y="467" fill="#8b7d72" font-family="Inter, Arial, sans-serif" font-size="13">4</text>
  <text x="32" y="506" fill="#24201d" font-family="Inter, Arial, sans-serif" font-size="14">urgent_triage</text>
  <rect x="250" y="488" width="570" height="24" rx="6" fill="#efe7dd"/>
  <rect x="250" y="488" width="570" height="24" rx="6" fill="#244b4a"/>
  <text x="838" y="505" fill="#8b7d72" font-family="Inter, Arial, sans-serif" font-size="13">4</text>
</svg>
