<svg xmlns="http://www.w3.org/2000/svg" width="920" height="458" viewBox="0 0 920 458" role="img" aria-label="Failure-tag frequency">
  <rect width="100%" height="100%" fill="#fbf7ef"/>
  <text x="32" y="38" fill="#24201d" font-family="Inter, Arial, sans-serif" font-size="20" font-weight="700">Failure-tag frequency</text>
  <text x="32" y="88" fill="#24201d" font-family="Inter, Arial, sans-serif" font-size="14">CQ</text>
  <rect x="250" y="70" width="570" height="24" rx="6" fill="#efe7dd"/>
  <rect x="250" y="70" width="570" height="24" rx="6" fill="#a65437"/>
  <text x="838" y="87" fill="#8b7d72" font-family="Inter, Arial, sans-serif" font-size="13">25</text>
  <text x="32" y="126" fill="#24201d" font-family="Inter, Arial, sans-serif" font-size="14">SC</text>
  <rect x="250" y="108" width="570" height="24" rx="6" fill="#efe7dd"/>
  <rect x="250" y="108" width="547" height="24" rx="6" fill="#a65437"/>
  <text x="838" y="125" fill="#8b7d72" font-family="Inter, Arial, sans-serif" font-size="13">24</text>
  <text x="32" y="164" fill="#24201d" font-family="Inter, Arial, sans-serif" font-size="14">EO</text>
  <rect x="250" y="146" width="570" height="24" rx="6" fill="#efe7dd"/>
  <rect x="250" y="146" width="387" height="24" rx="6" fill="#a65437"/>
  <text x="838" y="163" fill="#8b7d72" font-family="Inter, Arial, sans-serif" font-size="13">17</text>
  <text x="32" y="202" fill="#24201d" font-family="Inter, Arial, sans-serif" font-size="14">MS</text>
  <rect x="250" y="184" width="570" height="24" rx="6" fill="#efe7dd"/>
  <rect x="250" y="184" width="364" height="24" rx="6" fill="#a65437"/>
  <text x="838" y="201" fill="#8b7d72" font-family="Inter, Arial, sans-serif" font-size="13">16</text>
  <text x="32" y="240" fill="#24201d" font-family="Inter, Arial, sans-serif" font-size="14">SN</text>
  <rect x="250" y="222" width="570" height="24" rx="6" fill="#efe7dd"/>
  <rect x="250" y="222" width="296" height="24" rx="6" fill="#a65437"/>
  <text x="838" y="239" fill="#8b7d72" font-family="Inter, Arial, sans-serif" font-size="13">13</text>
  <text x="32" y="278" fill="#24201d" font-family="Inter, Arial, sans-serif" font-size="14">EU</text>
  <rect x="250" y="260" width="570" height="24" rx="6" fill="#efe7dd"/>
  <rect x="250" y="260" width="273" height="24" rx="6" fill="#a65437"/>
  <text x="838" y="277" fill="#8b7d72" font-family="Inter, Arial, sans-serif" font-size="13">12</text>
  <text x="32" y="316" fill="#24201d" font-family="Inter, Arial, sans-serif" font-size="14">HF</text>
  <rect x="250" y="298" width="570" height="24" rx="6" fill="#efe7dd"/>
  <rect x="250" y="298" width="273" height="24" rx="6" fill="#a65437"/>
  <text x="838" y="315" fill="#8b7d72" font-family="Inter, Arial, sans-serif" font-size="13">12</text>
  <text x="32" y="354" fill="#24201d" font-family="Inter, Arial, sans-serif" font-size="14">OR</text>
  <rect x="250" y="336" width="570" height="24" rx="6" fill="#efe7dd"/>
  <rect x="250" y="336" width="182" height="24" rx="6" fill="#a65437"/>
  <text x="838" y="353" fill="#8b7d72" font-family="Inter, Arial, sans-serif" font-size="13">8</text>
  <text x="32" y="392" fill="#24201d" font-family="Inter, Arial, sans-serif" font-size="14">RF</text>
  <rect x="250" y="374" width="570" height="24" rx="6" fill="#efe7dd"/>
  <rect x="250" y="374" width="182" height="24" rx="6" fill="#a65437"/>
  <text x="838" y="391" fill="#8b7d72" font-family="Inter, Arial, sans-serif" font-size="13">8</text>
  <text x="32" y="430" fill="#24201d" font-family="Inter, Arial, sans-serif" font-size="14">FR</text>
  <rect x="250" y="412" width="570" height="24" rx="6" fill="#efe7dd"/>
  <rect x="250" y="412" width="91" height="24" rx="6" fill="#a65437"/>
  <text x="838" y="429" fill="#8b7d72" font-family="Inter, Arial, sans-serif" font-size="13">4</text>
</svg>
