<svg xmlns="http://www.w3.org/2000/svg" width="920" height="230" viewBox="0 0 920 230" role="img" aria-label="Risk-level coverage">
  <rect width="100%" height="100%" fill="#fbf7ef"/>
  <text x="32" y="38" fill="#24201d" font-family="Inter, Arial, sans-serif" font-size="20" font-weight="700">Risk-level coverage</text>
  <text x="32" y="88" fill="#24201d" font-family="Inter, Arial, sans-serif" font-size="14">medium_high</text>
  <rect x="250" y="70" width="570" height="24" rx="6" fill="#efe7dd"/>
  <rect x="250" y="70" width="570" height="24" rx="6" fill="#a65437"/>
  <text x="838" y="87" fill="#8b7d72" font-family="Inter, Arial, sans-serif" font-size="13">20</text>
  <text x="32" y="126" fill="#24201d" font-family="Inter, Arial, sans-serif" font-size="14">high</text>
  <rect x="250" y="108" width="570" height="24" rx="6" fill="#efe7dd"/>
  <rect x="250" y="108" width="342" height="24" rx="6" fill="#a65437"/>
  <text x="838" y="125" fill="#8b7d72" font-family="Inter, Arial, sans-serif" font-size="13">12</text>
  <text x="32" y="164" fill="#24201d" font-family="Inter, Arial, sans-serif" font-size="14">low</text>
  <rect x="250" y="146" width="570" height="24" rx="6" fill="#efe7dd"/>
  <rect x="250" y="146" width="228" height="24" rx="6" fill="#a65437"/>
  <text x="838" y="163" fill="#8b7d72" font-family="Inter, Arial, sans-serif" font-size="13">8</text>
  <text x="32" y="202" fill="#24201d" font-family="Inter, Arial, sans-serif" font-size="14">medium</text>
  <rect x="250" y="184" width="570" height="24" rx="6" fill="#efe7dd"/>
  <rect x="250" y="184" width="228" height="24" rx="6" fill="#a65437"/>
  <text x="838" y="201" fill="#8b7d72" font-family="Inter, Arial, sans-serif" font-size="13">8</text>
</svg>
